<svg width="118" height="24" viewBox="0 0 118 24" fill="none" xmlns="http://www.w3.org/2000/svg">
<path d="M19.4225 13.5562C19.4225 14.9357 18.9458 16.3152 18.1116 17.4188C18.7472 16.2758 19.065 14.8963 18.9061 13.5956L15.5692 11.7825C16.324 12.6102 17.0788 13.4379 17.8335 14.2656C17.8335 15.0539 17.5555 15.8816 17.2377 16.5517C16.761 17.4976 16.0459 18.2465 15.1323 18.7589C16.5226 17.7735 17.3568 16.1575 17.3171 14.4627C16.2048 13.2408 15.1323 12.0584 14.02 10.8366C14.9336 9.96943 15.8473 9.1023 16.761 8.19576C16.4035 6.698 15.4103 5.3579 14.02 4.64844C15.5692 5.23966 16.8007 6.61917 17.2774 8.23518V8.35342C16.6418 8.94464 16.0459 9.53586 15.4103 10.1271L18.6678 8.86581C18.5883 7.84103 18.1911 6.81625 17.6349 5.94912C18.4294 6.89508 18.9856 7.99869 19.1842 9.18113C17.7541 9.73294 16.324 10.2847 14.8939 10.876C16.3637 11.6643 17.8335 12.492 19.3034 13.2803V13.3985C19.3034 13.3985 19.3034 13.4773 19.3034 13.5562H19.4225Z" fill="white"/>
<path d="M2.61899 13.5562C2.61899 14.9357 3.09568 16.3152 3.9299 17.4188C3.29431 16.2758 2.97651 14.8963 3.13541 13.5956L6.47228 11.7825C5.71751 12.6102 4.96274 13.4379 4.20797 14.2656C4.20797 15.0539 4.48605 15.8816 4.80384 16.5517C5.28054 17.4976 5.99558 18.2465 6.90925 18.7589C5.51889 17.7735 4.68467 16.1575 4.72439 14.4627C5.83668 13.2408 6.90925 12.0584 8.02154 10.8366C7.10787 9.96943 6.19421 9.1023 5.28054 8.19576C5.63806 6.698 6.63118 5.3579 8.02154 4.64844C6.47228 5.23966 5.24081 6.61917 4.76412 8.23518V8.35342C5.39971 8.94464 5.99558 9.53586 6.63118 10.1271L3.37376 8.86581C3.45321 7.84103 3.85045 6.81625 4.4066 5.94912C3.6121 6.89508 3.05596 7.99869 2.85734 9.18113C4.28742 9.73294 5.71751 10.2847 7.1476 10.876C5.67779 11.6643 4.20797 12.492 2.73816 13.2803V13.3985C2.73816 13.3985 2.73816 13.4773 2.73816 13.5562H2.61899Z" fill="white"/>
<path d="M12.3515 8.19387C11.994 8.03621 11.6365 7.91797 11.2392 7.91797C11.1598 7.91797 11.1201 7.91797 11.0406 7.91797C11.0406 7.91797 10.9612 7.91797 10.9214 7.91797H11.0009C11.3981 7.91797 11.7557 8.03621 12.1132 8.19387C13.1857 8.74568 13.8611 9.92812 13.7816 11.0711C13.7022 12.5295 12.5899 13.6331 11.8351 14.8155C11.557 15.2491 11.2392 15.6827 10.9214 16.1556C10.9214 16.1556 10.9612 16.2082 11.0406 16.3133C11.3584 15.8009 11.7159 15.3279 12.0337 14.8155C12.8282 13.6331 13.9008 12.5295 13.9802 11.0711C14.0597 9.92812 13.3844 8.70626 12.3118 8.19387H12.3515Z" fill="#F8E17F"/>
<path d="M12.1132 8.19387C11.7557 8.03621 11.3981 7.91797 11.0009 7.91797H10.9214C10.7625 7.91797 10.5639 7.91797 10.405 7.9968C10.2064 8.03621 10.0078 8.11504 9.80915 8.19387C9.61053 8.2727 9.45163 8.39094 9.29273 8.50919C9.13383 8.62743 8.97493 8.78509 8.85576 8.90334C8.73658 9.061 8.61741 9.21865 8.49824 9.37631C8.37906 9.53397 8.29961 9.73105 8.22016 9.92812C7.94209 10.677 8.02154 11.4259 8.29961 12.1748C8.29961 12.1748 8.29961 12.2142 8.29961 12.2536C8.69686 13.1601 9.37218 13.9484 9.92832 14.7761C10.1667 15.1309 10.4447 15.525 10.6831 15.8797C10.7625 15.998 10.842 16.1162 10.8817 16.1951C11.1598 15.7615 11.4776 15.3279 11.7954 14.855C12.5899 13.6725 13.6624 12.5689 13.7419 11.1106C13.8213 9.96753 13.146 8.74568 12.0735 8.23329L12.1132 8.19387ZM11.0406 12.293C10.1667 12.293 9.45163 11.5835 9.45163 10.7164C9.45163 9.84929 10.1667 9.13983 11.0406 9.13983C11.9146 9.13983 12.6296 9.84929 12.6296 10.7164C12.6296 11.5835 11.9146 12.293 11.0406 12.293Z" fill="#009D5C"/>
<path d="M14.4172 15.5685C14.4172 15.5685 14.2981 15.4502 14.1789 15.3714C13.9803 15.2532 13.7419 15.1743 13.4241 15.0955C13.0666 15.0167 12.6694 14.9379 12.1927 14.8984C12.1132 15.0167 12.0338 15.1349 11.9543 15.2532C12.4707 15.2532 12.9474 15.3714 13.3049 15.4502C13.583 15.5291 13.8214 15.6079 13.9803 15.6867C14.0994 15.7656 14.1392 15.8444 14.1392 15.8444C14.1392 15.8444 14.1392 15.9232 13.9803 16.0021C13.8214 16.0809 13.583 16.1597 13.3049 16.2385C12.7091 16.3962 11.8749 16.475 11.0009 16.475C10.127 16.475 9.33248 16.3962 8.69689 16.2385C8.41881 16.1597 8.18047 16.0809 8.02157 16.0021C7.90239 15.9232 7.86267 15.8444 7.86267 15.8444C7.86267 15.8444 7.86267 15.7656 8.02157 15.6867C8.18047 15.6079 8.41881 15.5291 8.69689 15.4502C9.09413 15.3714 9.53111 15.2926 10.0475 15.2532L9.80918 14.8984C9.37221 14.9379 8.93523 15.0167 8.57771 15.0955C8.25992 15.1743 8.02157 15.2532 7.82295 15.3714C7.70377 15.4502 7.62432 15.4897 7.5846 15.5685C7.50515 15.6473 7.46542 15.7656 7.46542 15.8444C7.46542 15.9232 7.46542 16.0415 7.5846 16.1203C7.62432 16.1991 7.70377 16.2385 7.82295 16.3174C8.02157 16.4356 8.25992 16.5144 8.57771 16.5933C9.21331 16.7509 10.0475 16.8298 10.9612 16.8298C11.8749 16.8298 12.7091 16.7509 13.3447 16.5933C13.6625 16.5144 13.9008 16.4356 14.0994 16.3174C14.2186 16.2385 14.2981 16.1991 14.3378 16.1203C14.4172 16.0415 14.457 15.9232 14.457 15.8444C14.457 15.7656 14.457 15.6473 14.3378 15.5685H14.4172Z" fill="#F8E17F"/>
<path d="M24.5867 5.91211V14.6622H31.0618V16.2388H22.7594V5.95152H24.5867V5.91211Z" fill="white"/>
<path d="M39.4835 13.5962H41.1916C41.1122 14.148 40.9136 14.621 40.5561 15.0545C40.2383 15.4881 39.7616 15.8034 39.2054 16.0399C38.6493 16.2764 37.9342 16.3946 37.1397 16.3946C36.2261 16.3946 35.4316 16.237 34.7165 15.8822C34.0015 15.5669 33.4453 15.0545 33.0481 14.4633C32.6508 13.8327 32.4522 13.1232 32.4522 12.2561C32.4522 11.389 32.6508 10.6795 33.0481 10.0489C33.4453 9.41823 34.0015 8.94525 34.6768 8.59052C35.3918 8.23578 36.1863 8.07812 37.1 8.07812C38.0137 8.07812 38.8479 8.23578 39.4835 8.59052C40.1191 8.90583 40.5958 9.41823 40.9136 10.0883C41.2314 10.7583 41.3505 11.586 41.3108 12.6108H34.2796C34.3193 13.0444 34.4782 13.4385 34.7165 13.7933C34.9549 14.148 35.2727 14.4239 35.7096 14.621C36.1069 14.818 36.6233 14.8969 37.1795 14.8969C37.815 14.8969 38.3315 14.7786 38.7287 14.5421C39.1657 14.3057 39.4438 13.9903 39.5629 13.5568L39.4835 13.5962ZM37.0206 9.53647C36.3055 9.53647 35.7096 9.73354 35.2329 10.0883C34.7563 10.443 34.4782 10.916 34.3193 11.4284H39.4438C39.404 10.8372 39.1657 10.3642 38.7287 10.0489C38.2917 9.73354 37.7356 9.53647 37.0206 9.53647Z" fill="white"/>
<path d="M46.3956 16.3568C45.6805 16.3568 45.0052 16.1992 44.4093 15.8444C43.8135 15.4897 43.3368 15.0167 42.9793 14.3861C42.6217 13.7554 42.4231 13.046 42.4231 12.2577C42.4231 11.4694 42.6217 10.7205 42.9793 10.0899C43.3368 9.45924 43.8532 8.98626 44.4491 8.63153C45.0847 8.2768 45.76 8.11914 46.5147 8.11914C47.3887 8.11914 48.064 8.31621 48.5407 8.67095C49.0571 9.02568 49.4146 9.53807 49.6133 10.1687C49.8119 10.7993 49.9311 11.5088 49.9311 12.2577C49.9311 12.6913 49.8516 13.1642 49.7324 13.6372C49.6133 14.1102 49.4146 14.5832 49.1366 14.9773C48.8585 15.3715 48.501 15.7262 48.064 16.0021C47.627 16.278 47.0709 16.3962 46.3956 16.3962V16.3568ZM46.912 14.8985C47.5079 14.8985 48.0243 14.7802 48.4613 14.5437C48.8982 14.3073 49.216 13.9919 49.4146 13.5978C49.653 13.2036 49.7324 12.7307 49.7324 12.2183C49.7324 11.6665 49.6133 11.1935 49.4146 10.7599C49.1763 10.3658 48.8585 10.0505 48.4613 9.85339C48.064 9.6169 47.5476 9.53807 46.9517 9.53807C46.0778 9.53807 45.4422 9.77456 44.9655 10.287C44.4888 10.7993 44.2504 11.43 44.2504 12.2183C44.2504 12.7307 44.3696 13.2036 44.608 13.5978C44.8463 13.9919 45.1641 14.3073 45.5614 14.5437C45.9586 14.7802 46.4353 14.8591 46.9517 14.8591L46.912 14.8985ZM49.7324 8.2768H51.5201V16.1992H49.8516C49.8119 15.805 49.7722 15.4503 49.7722 15.1744C49.7722 14.8985 49.7722 14.6226 49.7722 14.3467V8.31621L49.7324 8.2768Z" fill="white"/>
<path d="M57.0418 16.3546C56.287 16.3546 55.6514 16.197 55.0158 15.8423C54.3802 15.4875 53.9432 15.0145 53.5857 14.3839C53.2282 13.7533 53.0693 13.0438 53.0693 12.2555C53.0693 11.4672 53.2282 10.7183 53.5857 10.0877C53.9432 9.45707 54.4199 8.98409 54.9761 8.62936C55.572 8.27462 56.2473 8.11697 57.002 8.11697C57.6774 8.11697 58.2335 8.23521 58.7102 8.43228C59.1869 8.66877 59.5444 8.94467 59.7828 9.33882C60.0608 9.73297 60.2595 10.1665 60.3786 10.6395C60.4978 11.1519 60.5773 11.6643 60.5773 12.2555C60.5773 12.6891 60.4978 13.1621 60.3786 13.635C60.2595 14.108 60.0608 14.581 59.7828 14.9751C59.5047 15.3693 59.1472 15.724 58.7102 15.9999C58.2732 16.2758 57.7171 16.3941 57.0418 16.3941V16.3546ZM57.5979 14.8963C58.1938 14.8963 58.7102 14.7781 59.1472 14.5416C59.5841 14.3051 59.9019 13.9898 60.1006 13.5956C60.3389 13.2015 60.4184 12.7285 60.4184 12.2161C60.4184 11.6643 60.2992 11.1913 60.1006 10.7578C59.8622 10.3636 59.5444 10.0483 59.1472 9.8118C58.7499 9.57531 58.2335 9.49648 57.6376 9.49648C56.7637 9.49648 56.1281 9.73297 55.6514 10.2454C55.1747 10.7578 54.9364 11.3884 54.9364 12.1767C54.9364 12.6891 55.0555 13.1621 55.2939 13.5562C55.5322 13.9503 55.85 14.2657 56.2473 14.5022C56.6445 14.7386 57.1212 14.8175 57.6376 14.8175L57.5979 14.8963ZM60.3786 5.08203H62.1663V16.197H60.4978C60.4978 15.9605 60.4581 15.6452 60.4184 15.2904C60.4184 14.9357 60.3786 14.6204 60.3786 14.3051V5.08203Z" fill="white"/>
<path d="M64.0333 12.7662H65.821C65.8607 13.1603 66.0196 13.5151 66.2976 13.8304C66.5757 14.1457 66.9332 14.3822 67.3702 14.5793C67.8072 14.7369 68.3633 14.8552 68.9195 14.8552C69.4359 14.8552 69.8729 14.7763 70.2304 14.6581C70.5879 14.5398 70.8263 14.3428 70.9852 14.1063C71.1441 13.8698 71.2235 13.5939 71.2235 13.318C71.2235 13.0421 71.1441 12.7662 70.9454 12.6085C70.7468 12.4509 70.429 12.2932 70.0318 12.175C69.6345 12.0567 69.1181 11.9385 68.4825 11.8202C67.9661 11.7414 67.4497 11.5837 66.973 11.4261C66.4963 11.2684 66.0593 11.0713 65.6621 10.8349C65.2648 10.5984 64.947 10.283 64.7484 9.92831C64.51 9.57358 64.4306 9.14002 64.4306 8.66704C64.4306 8.11524 64.5895 7.60285 64.9073 7.16928C65.2251 6.73572 65.7018 6.38099 66.2976 6.10509C66.8935 5.82918 67.688 5.71094 68.5619 5.71094C69.9126 5.71094 70.9454 6.02626 71.6605 6.65689C72.3755 7.28753 72.733 8.11524 72.6933 9.17943H70.9454C70.9454 8.50938 70.6674 8.03641 70.1907 7.72109C69.714 7.40577 69.1578 7.28753 68.4428 7.28753C67.8072 7.28753 67.2908 7.40577 66.8538 7.60284C66.4168 7.83933 66.2182 8.19407 66.2182 8.66704C66.2182 8.86412 66.2579 9.06119 66.3771 9.21885C66.4963 9.37651 66.6552 9.49475 66.8935 9.613C67.1319 9.73124 67.4497 9.84948 67.8469 9.96773C68.2442 10.086 68.7606 10.2042 69.3564 10.3225C69.8729 10.4013 70.3496 10.5195 70.7865 10.6772C71.2235 10.8349 71.6207 10.9925 71.9783 11.229C72.2961 11.4655 72.5741 11.7414 72.7728 12.0961C72.9714 12.4509 73.0508 12.8844 73.0508 13.3968C73.0508 13.988 72.8919 14.5004 72.6139 14.934C72.2961 15.3675 71.8591 15.7223 71.2632 15.9982C70.6674 16.2741 69.8729 16.3923 68.8797 16.3923C68.125 16.3923 67.4894 16.3135 66.9332 16.1164C66.3771 15.9588 65.9004 15.7223 65.5429 15.4464C65.1456 15.1705 64.8676 14.8552 64.6292 14.5398C64.3909 14.2245 64.232 13.9092 64.1525 13.5939C64.0731 13.2786 64.0333 13.0027 64.0731 12.8056L64.0333 12.7662Z" fill="white"/>
<path d="M74.6398 8.2752H76.348L76.4274 10.2065V19.3507H74.6398V8.23578V8.2752ZM79.804 16.3552C79.1684 16.3552 78.6123 16.237 78.1356 15.9611C77.6986 15.7246 77.3014 15.3699 77.063 14.9363C76.7849 14.5027 76.5863 14.0692 76.4671 13.5962C76.348 13.1232 76.2685 12.6502 76.2685 12.2167C76.2685 11.6255 76.348 11.0736 76.4671 10.6007C76.5863 10.0883 76.7849 9.65471 77.063 9.29998C77.3411 8.90583 77.6986 8.62993 78.1356 8.39344C78.5725 8.15695 79.1287 8.07812 79.804 8.07812C80.5588 8.07812 81.2341 8.2752 81.83 8.62993C82.4258 8.98466 82.9025 9.45764 83.26 10.0883C83.6176 10.7189 83.7765 11.4284 83.7765 12.2561C83.7765 13.0838 83.5778 13.7933 83.2203 14.4239C82.8628 15.0545 82.3861 15.5275 81.7902 15.8822C81.1944 16.237 80.519 16.3946 79.804 16.3946V16.3552ZM79.2479 14.8969C79.7643 14.8969 80.241 14.7786 80.6382 14.5816C81.0355 14.3451 81.3533 14.0298 81.5916 13.6356C81.83 13.2415 81.9094 12.7685 81.9094 12.2561C81.9094 11.4678 81.6711 10.7977 81.1944 10.3248C80.7177 9.81237 80.0424 9.57588 79.2081 9.57588C78.6917 9.57588 78.1753 9.69413 77.7781 9.8912C77.3411 10.1277 77.0233 10.443 76.7849 10.8372C76.5466 11.2313 76.4274 11.7043 76.4274 12.2955C76.4274 12.8079 76.5466 13.2415 76.7452 13.675C76.9836 14.0692 77.3014 14.3845 77.6986 14.621C78.0958 14.8575 78.6123 14.9757 79.2081 14.9757L79.2479 14.8969Z" fill="white"/>
<path d="M87.4311 4.92578V6.62061H85.286V4.92578H87.4311ZM85.4449 8.27603H87.2325V16.1984H85.4449V8.27603Z" fill="white"/>
<path d="M92.9131 16.3546C92.1584 16.3546 91.5228 16.197 90.8872 15.8423C90.2913 15.4875 89.8146 15.0145 89.4571 14.3839C89.0996 13.7533 88.9407 13.0438 88.9407 12.2555C88.9407 11.4672 89.0996 10.7183 89.4571 10.0877C89.8146 9.45707 90.2913 8.98409 90.8475 8.62936C91.4433 8.27462 92.1186 8.11697 92.8734 8.11697C93.5487 8.11697 94.1049 8.23521 94.5816 8.43228C95.0583 8.66877 95.4158 8.94467 95.6541 9.33882C95.9322 9.73297 96.1308 10.1665 96.25 10.6395C96.3692 11.1519 96.4486 11.6643 96.4486 12.2555C96.4486 12.6891 96.3692 13.1621 96.25 13.635C96.1308 14.108 95.9322 14.581 95.6541 14.9751C95.3761 15.3693 95.0185 15.724 94.5816 15.9999C94.1446 16.2758 93.5885 16.3941 92.9131 16.3941V16.3546ZM93.4693 14.8963C94.0652 14.8963 94.5816 14.7781 95.0185 14.5416C95.4555 14.3051 95.7733 13.9898 95.9719 13.5956C96.2103 13.2015 96.2897 12.7285 96.2897 12.2161C96.2897 11.6643 96.1706 11.1913 95.9719 10.7578C95.7336 10.3636 95.4158 10.0483 95.0185 9.8118C94.6213 9.57531 94.1049 9.49648 93.509 9.49648C92.6351 9.49648 91.9995 9.73297 91.5228 10.2454C91.0461 10.7578 90.8077 11.3884 90.8077 12.1767C90.8077 12.6891 90.9269 13.1621 91.1653 13.5562C91.4036 13.9503 91.7214 14.2657 92.1186 14.5022C92.5159 14.7386 92.9926 14.8175 93.509 14.8175L93.4693 14.8963ZM96.2897 5.08203H98.0773V16.197H96.4089C96.4089 15.9605 96.3692 15.6452 96.3295 15.2904C96.3295 14.9357 96.2897 14.6204 96.2897 14.3051V5.08203Z" fill="white"/>
<path d="M106.976 13.5962H108.684C108.604 14.148 108.406 14.621 108.048 15.0545C107.73 15.4881 107.254 15.8034 106.698 16.0399C106.141 16.2764 105.426 16.3946 104.632 16.3946C103.718 16.3946 102.924 16.237 102.209 15.8822C101.494 15.5669 100.938 15.0545 100.54 14.4633C100.143 13.8327 99.9444 13.1232 99.9444 12.2561C99.9444 11.389 100.143 10.6795 100.54 10.0489C100.938 9.41823 101.494 8.94525 102.169 8.59052C102.884 8.23578 103.679 8.07812 104.592 8.07812C105.506 8.07812 106.34 8.23578 106.976 8.59052C107.611 8.94525 108.088 9.41823 108.406 10.0883C108.724 10.7583 108.843 11.586 108.803 12.6108H101.772C101.811 13.0444 101.97 13.4385 102.209 13.7933C102.447 14.148 102.765 14.4239 103.202 14.621C103.599 14.818 104.115 14.8969 104.672 14.8969C105.307 14.8969 105.824 14.7786 106.221 14.5421C106.658 14.3057 106.936 13.9903 107.055 13.5568L106.976 13.5962ZM104.513 9.53647C103.798 9.53647 103.202 9.73354 102.725 10.0883C102.248 10.443 101.931 10.916 101.811 11.4284H106.936C106.896 10.8372 106.658 10.3642 106.221 10.0489C105.784 9.73354 105.228 9.53647 104.513 9.53647Z" fill="white"/>
<path d="M110.312 8.2752H112.1V16.1976H110.312V8.2752ZM115 9.77296C114.404 9.77296 113.927 9.8912 113.53 10.1277C113.133 10.3642 112.775 10.6795 112.537 11.0342C112.299 11.389 112.14 11.7043 112.021 12.059V11.1525C112.021 11.1525 112.021 10.8766 112.1 10.6007C112.18 10.3642 112.259 10.0883 112.378 9.81237C112.497 9.53647 112.696 9.26057 112.934 8.98466C113.173 8.70876 113.451 8.51169 113.769 8.31461C114.086 8.11754 114.484 8.07812 114.96 8.07812V9.77296H115Z" fill="white"/>
</svg>
