<svg width="78" height="24" viewBox="0 0 78 24" fill="none" xmlns="http://www.w3.org/2000/svg">
<mask id="mask0_808_2152" style="mask-type:luminance" maskUnits="userSpaceOnUse" x="2" y="1" width="23" height="22">
<path d="M19.45 1.13672H7.4C4.65239 1.13672 2.425 3.3366 2.425 6.0503V17.9515C2.425 20.6652 4.65239 22.8651 7.4 22.8651H19.45C22.1976 22.8651 24.425 20.6652 24.425 17.9515V6.0503C24.425 3.3366 22.1976 1.13672 19.45 1.13672Z" fill="white"/>
</mask>
<g mask="url(#mask0_808_2152)">
<path d="M24.425 1.13672H2.425V22.8651H24.425V1.13672Z" fill="url(#paint0_linear_808_2152)"/>
</g>
<path fill-rule="evenodd" clip-rule="evenodd" d="M7.375 11.754C6.45 11.5071 5.3 11.754 5.375 12.9886C5.925 12.396 7.075 12.9392 7.775 13.3343L10.25 14.7417L12.125 11.5318C9.9 10.9639 7.7 10.717 7.4 11.754" fill="white"/>
<path fill-rule="evenodd" clip-rule="evenodd" d="M21 7.28532L21.45 7.55693L16.725 15.631C16.2 16.5199 15.425 17.0137 14.25 16.8162L19.6 7.65569C19.875 7.18656 20.5 7.01372 20.975 7.28532" fill="white"/>
<path fill-rule="evenodd" clip-rule="evenodd" d="M18.275 7.95134L18.725 8.22294L13.775 16.6921C13.3 16.5192 12.925 16.2723 12.425 15.976L16.9 8.32171C17.175 7.85257 17.8 7.67973 18.275 7.95134Z" fill="white"/>
<path fill-rule="evenodd" clip-rule="evenodd" d="M15.55 8.61931L16 8.89091L12 15.7304L10.675 14.965L14.175 8.98968C14.45 8.52054 15.075 8.3477 15.55 8.61931Z" fill="white"/>
<path d="M35.6 8.34493C35.325 8.86345 34.875 9.2832 34.275 9.60419C33.675 9.92518 32.9 10.0733 32 10.0733H30.125V14.3202H27.875V3.2832H31.975C32.85 3.2832 33.575 3.43135 34.175 3.72765C34.775 4.02394 35.25 4.41901 35.55 4.93752C35.85 5.45604 36 6.04864 36 6.69061C36 7.2832 35.85 7.82641 35.575 8.34493M33.275 7.8758C33.575 7.60419 33.725 7.20913 33.725 6.69061C33.725 5.60419 33.125 5.08567 31.9 5.08567H30.125V8.29555H31.9C32.525 8.29555 32.975 8.1474 33.275 7.8758Z" fill="white"/>
<path d="M40.725 5.8267C41.2 5.5551 41.725 5.43164 42.325 5.43164V7.75263H41.725C41.025 7.75263 40.5 7.92547 40.125 8.24645C39.775 8.56744 39.6 9.13534 39.6 9.95016V14.3205H37.35V5.5551H39.6V6.91312C39.9 6.44399 40.275 6.09831 40.725 5.8267Z" fill="white"/>
<path d="M45.2 13.9008C44.525 13.5304 43.975 12.9872 43.6 12.3205C43.2 11.6292 43.025 10.839 43.025 9.95016C43.025 9.06127 43.225 8.27115 43.625 7.57979C44.025 6.88843 44.575 6.36991 45.275 5.99954C45.975 5.62917 46.75 5.43164 47.6 5.43164C48.45 5.43164 49.225 5.62917 49.925 5.99954C50.625 6.36991 51.175 6.91312 51.575 7.57979C51.975 8.27115 52.175 9.06127 52.175 9.95016C52.175 10.839 51.975 11.6292 51.55 12.3205C51.15 13.0119 50.575 13.5304 49.875 13.9008C49.175 14.2711 48.4 14.4687 47.525 14.4687C46.65 14.4687 45.9 14.2711 45.225 13.9008M48.65 12.2465C49 12.0489 49.3 11.7526 49.5 11.3576C49.725 10.9625 49.825 10.4934 49.825 9.92547C49.825 9.08596 49.6 8.44399 49.15 7.99954C48.7 7.5551 48.175 7.33288 47.525 7.33288C46.875 7.33288 46.35 7.5551 45.925 7.99954C45.5 8.44399 45.275 9.08596 45.275 9.92547C45.275 10.765 45.475 11.4069 45.9 11.8514C46.325 12.2958 46.85 12.5181 47.5 12.5181C47.9 12.5181 48.275 12.4193 48.65 12.2218" fill="white"/>
<path d="M59.825 14.3202L55.75 9.40666V14.3202H53.525V3.2832H55.75V8.22147L59.825 3.2832H62.525L57.925 8.76468L62.65 14.3202H59.825Z" fill="white"/>
<path d="M71.6 8.34493C71.325 8.86345 70.875 9.2832 70.275 9.60419C69.675 9.92518 68.9 10.0733 68 10.0733H66.125V14.3202H63.875V3.2832H67.975C68.85 3.2832 69.575 3.43135 70.175 3.72765C70.775 4.02394 71.25 4.41901 71.55 4.93752C71.85 5.45604 72 6.04864 72 6.69061C72 7.2832 71.85 7.82641 71.575 8.34493M69.25 7.8758C69.55 7.60419 69.7 7.20913 69.7 6.69061C69.7 5.60419 69.1 5.08567 67.875 5.08567H66.1V8.29555H67.875C68.5 8.29555 68.95 8.1474 69.25 7.8758Z" fill="white"/>
<path d="M75.6 3.2832H73.35V14.3202H75.6V3.2832Z" fill="white"/>
<path d="M28.425 18.123H27.9V20.765H28.425V18.123Z" fill="white"/>
<path d="M30.425 20.7656C30.425 20.9632 30.375 21.0866 30.275 21.1854C30.175 21.2841 30.05 21.3335 29.9 21.3335C29.775 21.3335 29.65 21.3088 29.55 21.2595C29.45 21.2101 29.4 21.136 29.375 21.0372H28.85C28.875 21.2841 28.975 21.457 29.175 21.6051C29.375 21.7533 29.625 21.8027 29.925 21.8027C30.15 21.8027 30.35 21.7533 30.5 21.6792C30.65 21.5804 30.775 21.457 30.85 21.3088C30.925 21.1607 30.975 20.9878 30.975 20.7903H30.425V20.7656Z" fill="white"/>
<path d="M29.975 20.7656H29.475C29.475 20.7656 29.65 20.7903 29.725 20.7903C29.8 20.7903 29.9 20.7903 29.975 20.7656Z" fill="white"/>
<path d="M30.15 20.6913C30.15 20.6913 30.375 20.5431 30.425 20.4443V20.7653H30.975V18.6666H30.425V18.9629C30.425 18.9629 30.25 18.79 30.15 18.716C30.025 18.6419 29.9 18.6172 29.725 18.6172C29.55 18.6172 29.375 18.6666 29.225 18.7406C29.075 18.8394 28.95 18.9629 28.875 19.111C28.8 19.2839 28.75 19.4567 28.75 19.6789C28.75 19.9011 28.8 20.074 28.875 20.2468C28.95 20.4197 29.075 20.5431 29.225 20.6419C29.3 20.6913 29.375 20.716 29.45 20.7406H29.95C29.95 20.7406 30.075 20.716 30.125 20.6666M29.375 20.0246C29.375 20.0246 29.3 19.8271 29.3 19.7036C29.3 19.5802 29.325 19.4567 29.375 19.3826C29.425 19.2839 29.5 19.2098 29.575 19.1604C29.65 19.111 29.75 19.0863 29.85 19.0863C29.95 19.0863 30.05 19.111 30.125 19.1604C30.2 19.2098 30.275 19.2839 30.325 19.3826C30.375 19.4814 30.4 19.5802 30.4 19.7036C30.4 19.8271 30.375 19.9505 30.325 20.0246C30.275 20.1234 30.2 20.1974 30.125 20.2468C30.05 20.2962 29.95 20.3209 29.85 20.3209C29.75 20.3209 29.65 20.2962 29.575 20.2468C29.5 20.1974 29.425 20.1234 29.375 20.0246Z" fill="white"/>
<path d="M31.975 19.6048C31.975 19.432 32.025 19.3085 32.1 19.2098C32.175 19.111 32.3 19.0863 32.45 19.0863C32.6 19.0863 32.7 19.1357 32.8 19.2098C32.875 19.3085 32.925 19.432 32.925 19.6048V20.7653H33.45V19.5308C33.45 19.2592 33.375 19.0369 33.225 18.8641C33.075 18.716 32.875 18.6172 32.625 18.6172C32.5 18.6172 32.375 18.6419 32.25 18.6913C32.15 18.7406 32.05 18.8147 31.975 18.9135V18.6419H31.45V20.7406H31.975V19.5802V19.6048Z" fill="white"/>
<path d="M34.175 18.4193C34.175 18.4193 34.35 18.3946 34.4 18.3206C34.45 18.2465 34.5 18.1971 34.5 18.0983C34.5 17.9996 34.475 17.9255 34.4 17.8761C34.325 17.8267 34.25 17.7773 34.175 17.7773C34.1 17.7773 34 17.802 33.95 17.8761C33.9 17.9255 33.85 17.9996 33.85 18.0983C33.85 18.1971 33.875 18.2712 33.95 18.3206C34.025 18.3699 34.1 18.4193 34.175 18.4193Z" fill="white"/>
<path d="M34.425 18.666H33.9V20.7648H34.425V18.666Z" fill="white"/>
<path d="M34.975 20.0984C34.975 20.5428 35.2 20.7403 35.65 20.7403H35.975V20.2959H35.725C35.725 20.2959 35.575 20.2959 35.55 20.2465C35.525 20.2218 35.5 20.1724 35.5 20.0984V19.086H35.975V18.6416H35.5V18.123H34.95V18.6416H34.7V19.086H34.95V20.0984H34.975Z" fill="white"/>
<path d="M36.7 20.6673C36.85 20.766 37.05 20.7907 37.25 20.7907C37.5 20.7907 37.725 20.7167 37.9 20.5932C38.075 20.4697 38.2 20.2969 38.25 20.0994H37.675C37.6 20.2722 37.45 20.3463 37.25 20.3463C37.1 20.3463 37 20.2969 36.9 20.2228C36.8 20.1487 36.75 20.0253 36.75 19.8771H38.3C38.3 19.8771 38.3 19.7537 38.3 19.6796C38.3 19.4821 38.25 19.2846 38.175 19.1364C38.075 18.9883 37.975 18.8648 37.8 18.766C37.65 18.692 37.45 18.6426 37.25 18.6426C37.05 18.6426 36.85 18.692 36.7 18.766C36.55 18.8648 36.425 18.9883 36.325 19.1364C36.225 19.3092 36.2 19.4821 36.2 19.7043C36.2 19.9265 36.25 20.0994 36.325 20.2722C36.425 20.445 36.55 20.5685 36.7 20.6426M36.9 19.1858C36.9 19.1858 37.1 19.0623 37.225 19.0623C37.375 19.0623 37.475 19.1117 37.575 19.1858C37.675 19.2599 37.725 19.3833 37.725 19.5068H36.725C36.725 19.3586 36.8 19.2599 36.9 19.1858Z" fill="white"/>
<path d="M40.05 20.765H40.575V18.5428H41.275V18.123H39.325V18.5428H40.05V20.765Z" fill="white"/>
<path d="M42 20.6673C42.15 20.766 42.35 20.7907 42.55 20.7907C42.8 20.7907 43.025 20.7167 43.2 20.5932C43.375 20.4697 43.5 20.2969 43.55 20.0994H42.975C42.9 20.2722 42.75 20.3463 42.55 20.3463C42.4 20.3463 42.3 20.2969 42.2 20.2228C42.1 20.1487 42.05 20.0253 42.05 19.8771H43.6C43.6 19.8771 43.6 19.7537 43.6 19.6796C43.6 19.4821 43.55 19.2846 43.475 19.1364C43.375 18.9883 43.275 18.8648 43.1 18.766C42.95 18.692 42.75 18.6426 42.55 18.6426C42.35 18.6426 42.15 18.692 42 18.766C41.85 18.8648 41.725 18.9883 41.625 19.1364C41.525 19.3092 41.5 19.4821 41.5 19.7043C41.5 19.9265 41.55 20.0994 41.625 20.2722C41.725 20.445 41.85 20.5685 42 20.6426M42.2 19.1858C42.2 19.1858 42.4 19.0623 42.525 19.0623C42.675 19.0623 42.775 19.1117 42.875 19.1858C42.975 19.2599 43.025 19.3833 43.025 19.5068H42.025C42.025 19.3586 42.1 19.2599 42.2 19.1858Z" fill="white"/>
<path d="M44.25 20.6666C44.4 20.7653 44.55 20.8147 44.75 20.8147C44.9 20.8147 45.05 20.79 45.175 20.716C45.3 20.6419 45.4 20.5678 45.45 20.469V20.7653H46V18.6666H45.45V18.9629C45.45 18.9629 45.275 18.79 45.175 18.716C45.05 18.6419 44.925 18.6172 44.75 18.6172C44.575 18.6172 44.4 18.6666 44.25 18.7406C44.1 18.8394 44 18.9629 43.9 19.111C43.825 19.2839 43.775 19.4567 43.775 19.6789C43.775 19.9011 43.825 20.074 43.9 20.2468C43.975 20.4197 44.1 20.5431 44.25 20.6419M44.4 19.3826C44.4 19.3826 44.525 19.2098 44.6 19.1851C44.675 19.1357 44.775 19.111 44.875 19.111C44.975 19.111 45.075 19.1357 45.15 19.1851C45.225 19.2345 45.3 19.3085 45.35 19.4073C45.4 19.5061 45.425 19.6048 45.425 19.7283C45.425 19.8518 45.4 19.9752 45.35 20.0493C45.3 20.1481 45.225 20.2221 45.15 20.2715C45.075 20.3209 44.975 20.3456 44.875 20.3456C44.775 20.3456 44.675 20.3209 44.6 20.2715C44.525 20.2221 44.45 20.1481 44.4 20.0493C44.35 19.9505 44.325 19.8518 44.325 19.7283C44.325 19.6048 44.35 19.4814 44.4 19.4073" fill="white"/>
<path d="M46.975 19.6048C46.975 19.432 47.025 19.3085 47.1 19.2345C47.175 19.1357 47.3 19.111 47.45 19.111C47.6 19.111 47.7 19.1604 47.8 19.2345C47.875 19.3332 47.925 19.4567 47.925 19.6048V20.7653H48.45V19.6048C48.45 19.432 48.5 19.3085 48.575 19.2345C48.65 19.1357 48.775 19.111 48.925 19.111C49.075 19.111 49.175 19.1604 49.275 19.2345C49.35 19.3332 49.4 19.4567 49.4 19.6048V20.7653H49.925V19.5308C49.925 19.2592 49.85 19.0369 49.675 18.8641C49.5 18.6913 49.3 18.6172 49.05 18.6172C48.9 18.6172 48.75 18.6419 48.625 18.716C48.5 18.79 48.4 18.8888 48.325 19.0122C48.25 18.8888 48.15 18.79 48.025 18.716C47.9 18.6419 47.75 18.6172 47.575 18.6172C47.45 18.6172 47.325 18.6419 47.225 18.6913C47.125 18.7406 47.025 18.8147 46.95 18.8888V18.6419H46.425V20.7406H46.95V19.5802L46.975 19.6048Z" fill="white"/>
<path d="M51.775 19.7527H52.225C52.45 19.7527 52.625 19.7033 52.775 19.6292C52.925 19.5551 53.025 19.4564 53.1 19.3329C53.175 19.2095 53.2 19.086 53.2 18.9379C53.2 18.7897 53.175 18.6416 53.1 18.5181C53.025 18.3947 52.925 18.2959 52.775 18.2218C52.625 18.1477 52.45 18.123 52.25 18.123H51.275V20.765H51.8V19.7527H51.775ZM51.775 18.5428H52.2C52.5 18.5428 52.625 18.6663 52.625 18.9379C52.625 19.0613 52.6 19.1601 52.525 19.2095C52.45 19.2835 52.35 19.3082 52.2 19.3082H51.775V18.5428Z" fill="white"/>
<path d="M53.875 20.6673C54.025 20.766 54.225 20.7907 54.425 20.7907C54.675 20.7907 54.9 20.7167 55.075 20.5932C55.25 20.4697 55.375 20.2969 55.425 20.0994H54.85C54.775 20.2722 54.625 20.3463 54.425 20.3463C54.275 20.3463 54.175 20.2969 54.075 20.2228C53.975 20.1487 53.925 20.0253 53.925 19.8771H55.475C55.475 19.8771 55.475 19.7537 55.475 19.6796C55.475 19.4821 55.425 19.2846 55.35 19.1364C55.25 18.9883 55.15 18.8648 54.975 18.766C54.825 18.692 54.625 18.6426 54.425 18.6426C54.225 18.6426 54.025 18.692 53.875 18.766C53.725 18.8648 53.6 18.9883 53.5 19.1364C53.4 19.3092 53.375 19.4821 53.375 19.7043C53.375 19.9265 53.425 20.0994 53.5 20.2722C53.6 20.445 53.725 20.5685 53.875 20.6426M54.075 19.1858C54.075 19.1858 54.275 19.0623 54.4 19.0623C54.55 19.0623 54.65 19.1117 54.75 19.1858C54.85 19.2599 54.9 19.3833 54.9 19.5068H53.9C53.9 19.3586 53.975 19.2599 54.075 19.1858Z" fill="white"/>
<path d="M56.35 19.7036C56.35 19.5061 56.4 19.3826 56.475 19.2839C56.55 19.2098 56.675 19.1604 56.85 19.1604H57V18.6172C56.85 18.6172 56.725 18.6419 56.625 18.716C56.525 18.79 56.425 18.8641 56.35 18.9876V18.6666H55.825V20.7653H56.35V19.7283V19.7036Z" fill="white"/>
<path d="M57.35 20.7657H57.9V19.1114H58.275V18.6669H57.9V18.5682C57.9 18.5682 57.925 18.3706 57.975 18.3213C58.025 18.2719 58.125 18.2472 58.25 18.2472V17.8027C57.95 17.8027 57.725 17.8521 57.575 17.9756C57.425 18.099 57.35 18.2966 57.35 18.5435V18.6422H57.1V19.0867H57.35V20.741V20.7657Z" fill="white"/>
<path d="M58.95 20.666C59.125 20.7648 59.3 20.7895 59.5 20.7895C59.7 20.7895 59.9 20.7401 60.05 20.666C60.225 20.5672 60.35 20.4438 60.45 20.2956C60.55 20.1228 60.6 19.95 60.6 19.7277C60.6 19.5055 60.55 19.3327 60.45 19.1598C60.35 18.987 60.225 18.8635 60.05 18.7895C59.875 18.6907 59.7 18.666 59.5 18.666C59.3 18.666 59.1 18.7154 58.95 18.7895C58.8 18.8635 58.65 19.0117 58.55 19.1598C58.45 19.3327 58.4 19.5055 58.4 19.7277C58.4 19.95 58.45 20.1228 58.55 20.2956C58.65 20.4685 58.775 20.5919 58.925 20.666M59.1 19.2586C59.1 19.2586 59.325 19.1105 59.475 19.1105C59.625 19.1105 59.75 19.1598 59.875 19.2586C59.975 19.3574 60.025 19.5302 60.025 19.7277C60.025 19.8512 60 19.9747 59.95 20.0734C59.9 20.1722 59.825 20.2463 59.75 20.2956C59.675 20.345 59.575 20.3697 59.475 20.3697C59.325 20.3697 59.2 20.3203 59.1 20.1969C59 20.0981 58.95 19.9253 58.95 19.7277C58.95 19.5302 59 19.3821 59.1 19.2586Z" fill="white"/>
<path d="M61.45 19.7036C61.45 19.5061 61.5 19.3826 61.575 19.2839C61.65 19.2098 61.775 19.1604 61.95 19.1604H62.1V18.6172C61.95 18.6172 61.825 18.6419 61.725 18.716C61.625 18.79 61.525 18.8641 61.45 18.9876V18.6666H60.925V20.7653H61.45V19.7283V19.7036Z" fill="white"/>
<path d="M62.95 19.6048C62.95 19.432 63 19.3085 63.075 19.2345C63.15 19.1357 63.275 19.111 63.425 19.111C63.575 19.111 63.675 19.1604 63.775 19.2345C63.85 19.3332 63.9 19.4567 63.9 19.6048V20.7653H64.425V19.6048C64.425 19.432 64.475 19.3085 64.55 19.2345C64.625 19.1357 64.75 19.111 64.9 19.111C65.05 19.111 65.15 19.1604 65.25 19.2345C65.325 19.3332 65.375 19.4567 65.375 19.6048V20.7653H65.9V19.5308C65.9 19.2592 65.825 19.0369 65.65 18.8641C65.475 18.6913 65.275 18.6172 65.025 18.6172C64.875 18.6172 64.725 18.6419 64.6 18.716C64.475 18.79 64.375 18.8888 64.3 19.0122C64.225 18.8888 64.125 18.79 64 18.716C63.875 18.6419 63.725 18.6172 63.55 18.6172C63.425 18.6172 63.3 18.6419 63.2 18.6913C63.1 18.7406 63 18.8147 62.925 18.8888V18.6419H62.4V20.7406H62.925V19.5802L62.95 19.6048Z" fill="white"/>
<path d="M66.7 20.6666C66.85 20.7653 67 20.8147 67.2 20.8147C67.35 20.8147 67.5 20.79 67.625 20.716C67.75 20.6419 67.85 20.5678 67.9 20.469V20.7653H68.45V18.6666H67.9V18.9629C67.9 18.9629 67.725 18.79 67.625 18.716C67.5 18.6419 67.375 18.6172 67.2 18.6172C67.025 18.6172 66.85 18.6666 66.7 18.7406C66.55 18.8394 66.45 18.9629 66.35 19.111C66.275 19.2839 66.225 19.4567 66.225 19.6789C66.225 19.9011 66.275 20.074 66.35 20.2468C66.425 20.4197 66.55 20.5431 66.7 20.6419M66.85 19.3826C66.85 19.3826 66.975 19.2098 67.05 19.1851C67.125 19.1357 67.225 19.111 67.325 19.111C67.425 19.111 67.525 19.1357 67.6 19.1851C67.675 19.2345 67.75 19.3085 67.8 19.4073C67.85 19.5061 67.875 19.6048 67.875 19.7283C67.875 19.8518 67.85 19.9752 67.8 20.0493C67.75 20.1481 67.675 20.2221 67.6 20.2715C67.525 20.3209 67.425 20.3456 67.325 20.3456C67.225 20.3456 67.125 20.3209 67.05 20.2715C66.975 20.2221 66.9 20.1481 66.85 20.0493C66.8 19.9505 66.775 19.8518 66.775 19.7283C66.775 19.6048 66.8 19.4814 66.85 19.4073" fill="white"/>
<path d="M69.425 19.6048C69.425 19.432 69.475 19.3085 69.55 19.2098C69.625 19.111 69.75 19.0863 69.9 19.0863C70.05 19.0863 70.15 19.1357 70.25 19.2098C70.35 19.2839 70.375 19.432 70.375 19.6048V20.7653H70.9V19.5308C70.9 19.2592 70.825 19.0369 70.675 18.8641C70.525 18.716 70.325 18.6172 70.075 18.6172C69.95 18.6172 69.825 18.6419 69.7 18.6913C69.6 18.7406 69.5 18.8147 69.425 18.9135V18.6419H68.9V20.7406H69.425V19.5802V19.6048Z" fill="white"/>
<path d="M71.725 20.6666C71.875 20.7653 72.075 20.79 72.275 20.79C72.525 20.79 72.75 20.716 72.925 20.5925C73.1 20.469 73.225 20.2715 73.275 20.0493H72.7C72.625 20.2468 72.5 20.3456 72.275 20.3456C72.125 20.3456 72 20.2962 71.9 20.1727C71.8 20.074 71.775 19.9011 71.775 19.7036C71.775 19.5061 71.825 19.3579 71.9 19.2345C72 19.1357 72.1 19.0616 72.275 19.0616C72.375 19.0616 72.475 19.0863 72.55 19.1357C72.625 19.1851 72.675 19.2592 72.7 19.3579H73.275C73.225 19.1357 73.1 18.9382 72.925 18.8147C72.75 18.6913 72.525 18.6172 72.275 18.6172C72.075 18.6172 71.9 18.6666 71.725 18.7406C71.575 18.8394 71.45 18.9629 71.35 19.111C71.25 19.2839 71.225 19.4567 71.225 19.6789C71.225 19.9011 71.275 20.074 71.35 20.2468C71.45 20.4197 71.575 20.5431 71.725 20.6172" fill="white"/>
<path d="M73.975 20.6673C74.125 20.766 74.325 20.7907 74.525 20.7907C74.775 20.7907 75 20.7167 75.175 20.5932C75.35 20.4697 75.475 20.2969 75.525 20.0994H74.95C74.875 20.2722 74.725 20.3463 74.525 20.3463C74.375 20.3463 74.275 20.2969 74.175 20.2228C74.075 20.1487 74.025 20.0253 74.025 19.8771H75.575C75.575 19.8771 75.575 19.7537 75.575 19.6796C75.575 19.4821 75.525 19.2846 75.45 19.1364C75.35 18.9883 75.25 18.8648 75.075 18.766C74.925 18.692 74.725 18.6426 74.525 18.6426C74.325 18.6426 74.125 18.692 73.975 18.766C73.825 18.8648 73.7 18.9883 73.6 19.1364C73.5 19.3092 73.475 19.4821 73.475 19.7043C73.475 19.9265 73.525 20.0994 73.6 20.2722C73.7 20.445 73.825 20.5685 73.975 20.6426M74.175 19.1858C74.175 19.1858 74.375 19.0623 74.5 19.0623C74.65 19.0623 74.75 19.1117 74.85 19.1858C74.95 19.2599 75 19.3833 75 19.5068H74C74 19.3586 74.075 19.2599 74.175 19.1858Z" fill="white"/>
<defs>
<linearGradient id="paint0_linear_808_2152" x1="4.113" y1="16.073" x2="26.103" y2="16.073" gradientUnits="userSpaceOnUse">
<stop stop-color="#625DF5"/>
<stop offset="1" stop-color="#8F5DF5"/>
</linearGradient>
</defs>
</svg>
