<svg width="93" height="24" viewBox="0 0 93 24" fill="none" xmlns="http://www.w3.org/2000/svg">
<path d="M2.85694 13.794C3.84873 13.794 4.65273 12.9963 4.65273 12.0122C4.65273 11.0282 3.84873 10.2305 2.85694 10.2305C1.86516 10.2305 1.06116 11.0282 1.06116 12.0122C1.06116 12.9963 1.86516 13.794 2.85694 13.794Z" fill="#7367F0"/>
<path d="M11.1557 3.77896C11.8631 4.48087 13.0059 4.48087 13.7133 3.77896C14.4207 3.07705 14.4207 1.94319 13.7133 1.24128C13.0059 0.539366 11.8631 0.539366 11.1557 1.24128C10.4482 1.94319 10.4482 3.07705 11.1557 3.77896Z" fill="#7367F0"/>
<path d="M13.6861 20.2198C12.9786 19.5179 11.8359 19.5179 11.1284 20.2198C10.421 20.9217 10.421 22.0556 11.1284 22.7575C11.8359 23.4594 12.9786 23.4594 13.6861 22.7575C14.3935 22.0556 14.3935 20.9217 13.6861 20.2198Z" fill="#7367F0"/>
<path d="M23.2364 10.7432C22.529 10.0413 21.3862 10.0413 20.6788 10.7432C19.9713 11.4451 19.9713 12.579 20.6788 13.2809C21.3862 13.9828 22.529 13.9828 23.2364 13.2809C23.9438 12.579 23.9438 11.4451 23.2364 10.7432Z" fill="#7367F0"/>
<path d="M15.0737 9.93474L15.1282 9.88074C15.6723 9.34081 16.407 9.04385 17.196 9.04385C17.6586 9.04385 18.1211 8.88187 18.4748 8.53091C19.1823 7.829 19.1823 6.69514 18.4748 5.99323C17.7674 5.29132 16.6246 5.29132 15.9172 5.99323C15.5635 6.34419 15.4002 6.80313 15.4002 7.26207C15.4002 8.01798 15.1282 8.77388 14.5568 9.31382L14.5023 9.36781C13.9582 9.90774 13.1963 10.2047 12.4345 10.2047C11.6454 10.2047 10.9108 9.90774 10.3666 9.36781L10.3122 9.31382C9.768 8.77388 9.4687 8.04497 9.4687 7.26207C9.4687 6.80313 9.30545 6.34419 8.95173 5.99323C8.2443 5.29132 7.10153 5.29132 6.3941 5.99323C5.68667 6.69514 5.68667 7.829 6.3941 8.53091C6.74781 8.88187 7.21037 9.04385 7.67292 9.04385C8.43477 9.04385 9.19661 9.31382 9.74079 9.88074L9.79521 9.93474C10.3394 10.4747 10.6387 11.2306 10.6387 11.9865C10.6387 12.7694 10.3394 13.4983 9.79521 14.0382L9.74079 14.0922C9.19661 14.6322 8.46197 14.9291 7.67292 14.9291C7.21037 14.9291 6.74781 15.0911 6.3941 15.442C5.68667 16.144 5.68667 17.2778 6.3941 17.9797C7.10153 18.6816 8.2443 18.6816 8.95173 17.9797C9.30545 17.6288 9.4687 17.1698 9.4687 16.7109C9.4687 15.955 9.74079 15.1991 10.3122 14.6591L10.3666 14.6052C10.9108 14.0652 11.6726 13.7683 12.4345 13.7683C13.2235 13.7683 13.9582 14.0652 14.5023 14.6052L14.5568 14.6591C15.1009 15.1991 15.4002 15.928 15.4002 16.7109C15.4002 17.1698 15.5635 17.6288 15.9172 17.9797C16.6246 18.6816 17.7674 18.6816 18.4748 17.9797C19.1823 17.2778 19.1823 16.144 18.4748 15.442C18.1211 15.0911 17.6586 14.9291 17.196 14.9291C16.4342 14.9291 15.6723 14.6591 15.1282 14.0922L15.0737 14.0382C14.5296 13.4983 14.2303 12.7424 14.2303 11.9865C14.2303 11.2036 14.5296 10.4747 15.0737 9.93474Z" fill="#7367F0"/>
<path d="M36.7864 7.07227H27.617V8.71906H31.263V17.223H33.1404V8.71906H36.7864V7.07227Z" fill="white"/>
<path d="M42.1466 10.4197C41.548 10.0148 40.7861 9.79883 39.8338 9.79883C39.072 9.79883 38.3918 9.96081 37.766 10.2848C37.1402 10.6087 36.6504 11.0677 36.2967 11.6346C35.943 12.2015 35.7525 12.8764 35.7525 13.6054C35.7525 14.3343 35.943 14.9822 36.2967 15.5761C36.6504 16.143 37.1402 16.602 37.766 16.9259C38.3918 17.2499 39.0448 17.4119 39.8066 17.4119C40.895 17.4119 41.7113 17.2229 42.2282 16.8449V17.2499H43.888V9.9878H42.1738V10.4467L42.1466 10.4197ZM41.6024 15.2251C41.1671 15.6301 40.5957 15.8461 39.8883 15.8461C39.1808 15.8461 38.6094 15.6301 38.1741 15.2251C37.7388 14.8202 37.5211 14.2803 37.5211 13.6054C37.5211 12.9304 37.7388 12.3905 38.1741 11.9856C38.6094 11.5806 39.1808 11.3646 39.8883 11.3646C40.5957 11.3646 41.1671 11.5806 41.6024 11.9856C42.0378 12.3905 42.2554 12.9574 42.2554 13.6323C42.2554 14.3073 42.0378 14.8472 41.6024 15.2521V15.2251Z" fill="white"/>
<path d="M50.5541 13.1461C50.1188 13.0111 49.5202 12.8761 48.7311 12.7411C48.2958 12.6601 47.9693 12.6061 47.7516 12.5521C47.534 12.4981 47.3979 12.4442 47.3163 12.3632C47.2347 12.2822 47.1802 12.2012 47.1802 12.0932C47.1802 11.8502 47.3163 11.6612 47.5884 11.5263C47.8605 11.3913 48.2686 11.3103 48.7856 11.3103C49.1937 11.3103 49.6018 11.3643 50.01 11.4723C50.4181 11.5803 50.799 11.7422 51.1527 11.9582L52.0234 10.6624C51.5609 10.3924 51.0711 10.1764 50.4997 10.0145C49.9283 9.85247 49.3842 9.77148 48.8128 9.77148C47.8877 9.77148 47.0986 9.96046 46.4184 10.3114C45.7654 10.6894 45.4117 11.2833 45.4117 12.1202C45.4117 12.5791 45.5205 12.9571 45.7382 13.2271C45.9558 13.497 46.2823 13.713 46.7177 13.875C47.153 14.037 47.7244 14.1719 48.4591 14.2799C49.0849 14.3879 49.5474 14.4959 49.8467 14.6039C50.146 14.7119 50.282 14.8468 50.282 15.0628C50.282 15.3328 50.1188 15.5218 49.7923 15.6298C49.4658 15.7647 49.0577 15.8187 48.5951 15.8187C48.1325 15.8187 47.6428 15.7377 47.1258 15.5758C46.6088 15.4138 46.1735 15.2248 45.847 15.0088L44.9763 16.3317C45.4389 16.6556 45.983 16.9256 46.6633 17.1146C47.3435 17.3035 47.9693 17.4115 48.5679 17.4115C49.6018 17.4115 50.4453 17.1956 51.0711 16.7906C51.6969 16.3857 52.0234 15.7917 52.0234 15.0358C52.0234 14.4959 51.8874 14.0909 51.5881 13.821C51.316 13.524 50.9351 13.308 50.4997 13.2001L50.5541 13.1461Z" fill="white"/>
<path d="M58.3903 9.96086L54.9892 13.1195V6.61328H53.2478V17.223H54.9892V15.3332L56.1047 14.2803L58.608 17.223H60.7847L57.3291 13.2005L60.8119 9.96086H58.3903Z" fill="white"/>
<path d="M61.9275 17.223H63.7777V12.9035H69.0018V11.2567H63.7777V8.71906H69.8452V7.07227H61.9275V17.223Z" fill="white"/>
<path d="M73.0831 9.96094H71.3689V17.223H73.0831V9.96094Z" fill="white"/>
<path d="M72.2396 7.39648C71.9403 7.39648 71.6682 7.47747 71.4506 7.66645C71.2329 7.85543 71.1241 8.0984 71.1241 8.36836C71.1241 8.63833 71.2329 8.8813 71.4506 9.09727C71.6682 9.28625 71.9131 9.39423 72.2396 9.39423C72.5661 9.39423 72.7838 9.28625 73.0015 9.09727C73.2191 8.9083 73.328 8.66533 73.328 8.39536C73.328 8.12539 73.2191 7.88242 73.0015 7.69345C72.7838 7.50447 72.5389 7.39648 72.2396 7.39648Z" fill="white"/>
<path d="M80.7832 10.1494C80.2935 9.90647 79.7221 9.77148 79.0963 9.77148C78.0895 9.77148 77.3549 9.93346 76.8651 10.2844V9.93346H75.151V17.1956H76.8651V12.9571C76.8651 12.4442 77.0556 12.0392 77.4637 11.7422C77.8719 11.4453 78.3344 11.2833 78.8786 11.2833C79.4228 11.2833 79.8581 11.4183 80.1574 11.7152C80.4839 12.0122 80.6472 12.3902 80.6472 12.9031V17.1956H82.3613V12.7951C82.3613 12.2012 82.2253 11.6612 81.926 11.2023C81.6539 10.7434 81.2458 10.3924 80.756 10.1494H80.7832Z" fill="white"/>
<path d="M91.3947 11.6073C91.041 11.0403 90.524 10.5814 89.8982 10.2574C89.2724 9.93346 88.5377 9.77148 87.7487 9.77148C86.9596 9.77148 86.2522 9.93346 85.6264 10.2574C85.0006 10.5814 84.5108 11.0403 84.1299 11.6073C83.7762 12.1742 83.5857 12.8491 83.5857 13.578C83.5857 14.3069 83.7762 14.9818 84.1299 15.5488C84.4836 16.1157 84.9734 16.5746 85.6264 16.8986C86.2522 17.2226 86.9596 17.3845 87.7487 17.3845C88.5377 17.3845 89.2452 17.2226 89.8982 16.8986C90.5512 16.5746 91.041 16.1157 91.3947 15.5488C91.7484 14.9818 91.9389 14.3069 91.9389 13.578C91.9389 12.8491 91.7484 12.2012 91.3947 11.6073ZM89.4901 15.1978C89.0547 15.6028 88.4561 15.8187 87.7487 15.8187C87.0413 15.8187 86.4427 15.6028 86.0073 15.1978C85.572 14.7929 85.3543 14.2529 85.3543 13.578C85.3543 12.9031 85.572 12.3632 86.0073 11.9582C86.4427 11.5533 87.014 11.3373 87.7487 11.3373C88.4833 11.3373 89.0547 11.5533 89.4901 11.9582C89.9254 12.3632 90.1431 12.9301 90.1431 13.578C90.1431 14.2259 89.9254 14.7929 89.4629 15.1978H89.4901Z" fill="white"/>
</svg>
