<svg width="29" height="41" viewBox="0 0 29 41" fill="none" xmlns="http://www.w3.org/2000/svg">
<path fill-rule="evenodd" clip-rule="evenodd" d="M4.80716 8.74061L5.02002 9.91052C4.60224 9.80582 4.11139 9.43753 3.66623 9.4547C2.54167 9.55198 2.85191 11.5341 2.25173 11.7027C0.455822 11.9193 0.419684 10.9409 0.251843 13.2894C0.170562 16.8325 2.79961 15.6042 3.78546 16.0626C5.21723 16.9184 3.40646 18.3752 2.97503 19.3498C2.66965 19.9553 2.93873 20.7658 3.28445 21.2236C3.48643 21.5249 3.78168 21.7905 3.94375 22.1329C4.18012 22.5912 3.7292 23.1195 4.32051 23.2233C4.60958 23.2061 4.77447 23.1306 5.02209 23.2476C5.2403 23.3265 5.50402 23.5233 5.45167 23.7744C4.64211 25.2945 5.27859 24.9509 5.17923 26.1015C4.7252 28.6882 5.33154 29.2673 5.99066 31.2762C6.21153 31.8465 6.03266 32.5184 6.17229 33.1065C6.3922 34.1564 7.27528 34.2164 8.03113 33.6958C8.78627 34.2698 8.9456 33.0104 9.05794 32.4552C9.56532 34.3758 10.49 33.547 10.6698 33.0089C10.9037 31.8372 10.5333 30.5149 10.8557 29.3689C10.8174 30.439 11.2304 31.6492 11.9389 33.0348C12.9735 34.6009 13.5643 32.7176 13.9131 31.8443C14.1892 31.4062 14.7122 31.1076 14.9817 30.6331C15.7192 29.2602 14.3925 27.5337 14.5484 26.2325C15.1302 26.2772 15.619 26.1338 16.1453 25.9473C17.2761 25.6323 18.8912 26.0202 19.6299 26.287C22.0316 27.2474 21.5504 28.9392 22.1631 30.3236C22.6231 31.3061 23.4091 31.9389 22.9752 32.9814C22.7392 33.5816 22.4082 34.21 22.5145 34.833C22.9512 36.6236 24.7113 37.9561 25.3625 39.3869C25.5013 39.6077 25.5786 39.8053 25.6993 40.0605C26.264 40.664 26.5564 39.6693 26.3618 39.2571C25.8227 37.5657 24.5676 36.3552 25.9371 36.0271C26.5593 36.1254 27.025 36.7208 27.6545 36.8769C28.2887 37.1215 28.5351 36.6884 28.2764 36.3209C26.6652 34.7252 28.2799 33.4814 27.4914 31.14C27.3887 30.7008 27.3304 30.2677 27.3047 29.8117C27.2507 27.2775 26.7031 27.1521 26.3325 25.9242C26.0549 24.7525 26.8293 23.6827 26.7669 22.5404C26.7251 21.64 26.2204 20.8586 25.3289 20.2231C24.8543 19.9707 23.9751 20.0072 23.596 20.1076C23.0439 20.2734 23.3301 21.0974 23.3289 21.5109C22.5891 22.2296 22.2171 22.4968 22.3253 23.4371C22.3519 23.7658 22.506 24.1601 22.3175 24.4417C20.7256 26.2974 20.9518 21.6207 19.582 23.7323C19.4445 23.028 19.0051 20.617 18.9936 19.8666C19.9841 17.2539 21.0912 18.7752 22.4195 17.3653C22.6864 17.0834 22.7883 16.6761 23.1918 16.4222C24.4749 15.9747 25.0445 16.0412 25.1793 14.5631C25.2245 13.9017 25.0421 13.1229 25.2868 12.6523C25.7115 12.5334 26.6023 12.5353 26.8574 12.3966C27.5775 12.0121 26.612 11.2008 26.2363 10.901C25.8705 10.6345 25.4822 10.4809 25.0701 10.394C22.4012 10.0757 22.1234 10.927 19.6449 10.0029C17.2679 9.40927 17.553 10.4967 15.4214 10.3904C14.3664 10.4104 13.0822 10.3239 12.3808 10.1602C9.93062 9.65167 11.4752 7.26249 11.171 5.55512C10.849 3.38097 9.46773 3.33411 9.0708 3.91237C8.84753 4.19954 8.85464 4.6931 8.74622 5.01055C7.61026 4.68345 7.62857 3.66998 7.03829 2.9252C6.43682 2.23541 5.09486 1.22146 5.38676 2.97329C4.68358 2.53341 4.31477 1.59698 3.69268 0.963754C3.00118 0.163569 1.76265 -0.068817 1.74628 0.815667C1.76186 1.28841 2.03528 1.64328 2.1054 2.07634C2.01424 2.52702 1.11698 2.84245 0.975209 3.31193C-0.292511 6.39291 0.986053 6.38702 1.89495 6.8316C2.53129 9.06868 3.98808 8.21819 4.80716 8.74061ZM2.40674 0.913016C3.45581 1.14395 3.85519 2.47824 4.58397 3.15989C5.23003 3.78148 6.19791 4.18144 6.01892 2.87054C6.42154 3.12531 6.60506 3.38081 6.80024 3.75739C7.1641 4.50013 7.35739 5.13294 8.30226 5.55364C9.57523 6.09365 9.38598 4.59338 9.56329 4.33055C9.92668 3.96045 10.366 4.8916 10.4368 5.14105C11.1954 8.08145 7.75978 11.3511 16.0568 11.0177C16.9474 11.0266 17.8659 10.5254 18.1823 10.4914C19.0514 10.3834 19.8261 10.7843 20.6511 10.9772C22.5905 11.53 24.7955 10.1315 26.3104 11.8524C25.8193 11.9534 25.2375 11.8508 24.8449 12.1698C24.0521 13.1152 25.1351 15.1516 23.9515 15.5068C22.9721 15.7393 22.6309 15.8824 22.2343 16.5066C21.0295 18.3797 20.0213 16.4832 18.6492 19.0528C18.1028 19.8999 18.4725 20.5915 18.6548 22.1478C18.8912 23.4917 19.0046 25.6135 20.1719 24.0259C21.3318 26.9252 22.9631 24.8713 23.0072 24.4436C23.1659 23.8994 22.8264 23.436 22.9852 22.8699C23.7545 21.6562 24.1244 22.3277 23.8965 20.7151C25.0571 20.5695 25.3007 20.9318 25.8419 21.6636C26.6209 22.8342 25.5499 24.1833 25.636 25.574C25.7777 26.8841 26.7028 27.8346 26.6352 29.1657C26.6716 30.8335 26.9641 31.5114 27.0569 32.174C27.2478 33.4212 26.5513 34.7119 27.1539 35.9091C26.3209 35.3252 25.7109 35.1224 25.0493 35.7858C24.4333 36.3447 24.6849 36.9785 24.928 37.5756C21.8743 33.757 23.609 34.6204 23.7383 32.3053C23.6442 31.0216 22.521 30.2241 22.4225 28.9261C22.3436 28.5591 22.269 28.2004 22.1399 27.8503C21.3334 25.603 18.4893 25.0876 16.5493 25.1961C15.6824 25.3084 15.3355 25.651 14.7149 25.5651C12.6416 25.4473 15.1873 29.3936 14.4217 30.3245C14.2964 30.5163 14.1581 30.633 13.9915 30.7992C12.925 31.7057 13.2178 32.4522 12.6852 32.9453C12.1115 32.3237 11.639 30.6399 11.5184 30.0845C11.4992 29.9784 11.5 29.9692 11.4998 29.7557C11.5 29.4354 11.5048 28.8953 11.4758 28.7507C11.3634 28.2827 10.8095 28.4687 10.6718 28.5567C9.57963 29.246 10.4372 32.7356 9.94598 32.965C9.66133 32.519 9.64375 31.9927 9.41847 31.573C9.29785 31.3261 9.06363 31.3611 8.92286 31.4456C8.40768 31.7614 8.4365 32.538 8.27182 33.0752C7.66936 32.7946 6.95173 34.0289 6.77381 32.8472C6.6942 32.2626 6.79185 31.7091 6.67234 31.3284C6.34351 30.1547 5.91635 29.5625 5.71366 28.3678C5.48156 26.688 6.08401 26.2746 5.67124 24.811C5.78572 24.4495 6.06432 24.1621 6.0992 23.801C6.19651 23.03 5.30339 22.5145 4.66601 22.5139C4.67314 21.3006 3.35342 20.9726 3.4951 19.7795C3.78771 18.9973 4.54975 18.395 4.83058 17.5475C5.21618 16.5465 4.65082 15.537 3.69626 15.3564C3.08071 15.2146 2.4128 15.3416 1.8099 15.2087C0.613921 15.0176 0.873002 13.0813 0.990053 12.3317C3.6308 12.7348 2.961 11.2967 3.58943 10.1927C3.78145 9.84909 4.98459 10.9259 5.48345 10.4708C5.93341 10.279 5.50835 8.9814 5.45692 8.65563C5.41587 8.49386 5.32098 8.27724 5.19147 8.21257C3.87495 7.45131 2.92655 8.44083 2.47368 6.51668C2.45491 6.43601 2.38654 6.33773 2.2959 6.29639C0.947712 5.68362 0.92348 5.92333 1.24881 4.44373C1.64988 2.33959 3.45835 3.4479 2.40674 0.913016Z" fill="white" stroke="white" stroke-width="0.5"/>
</svg>
