<svg width="40" height="41" viewBox="0 0 40 41" fill="none" xmlns="http://www.w3.org/2000/svg">
<path d="M10.5161 22.1358C10.665 21.8888 10.5633 21.6453 10.5019 21.4999L10.4914 21.4737C10.5344 21.4582 10.6022 21.4385 10.7045 21.4187C10.7186 21.5055 10.7278 21.6248 10.7342 21.7074C10.7532 21.9544 10.773 22.2092 10.876 22.416C10.9431 22.5487 11.0525 22.6179 11.1718 22.6659C11.0708 22.8529 10.9798 23.0597 11.0758 23.2679C11.1329 23.3915 11.2452 23.4783 11.3376 23.4938C11.6348 23.5983 11.8543 23.6477 12.0293 23.6477C12.1674 23.6509 12.3025 23.6079 12.4133 23.5256L12.4606 23.5743C12.5792 23.6999 12.7683 23.8898 12.9779 23.8848C13.0563 23.8982 13.1269 23.9032 13.1897 23.9032C13.7663 23.9032 13.8997 23.4458 13.9647 23.2256C13.9852 23.1543 14.0134 23.0576 14.0141 23.0456C14.0176 23.0435 14.1327 23.0385 14.2527 23.0463C14.3268 23.0513 14.4044 23.0555 14.482 23.0555C15.1794 23.0555 15.5605 22.6454 15.6474 21.7928C15.6932 21.1738 15.6198 20.7962 15.4081 20.5682C15.3428 20.497 15.2625 20.4413 15.173 20.4051C15.2817 20.2209 15.3304 20.0198 15.2556 19.8151C15.1342 19.4311 15.0029 19.0401 14.65 19.0401C14.7013 18.9723 14.733 18.8917 14.7418 18.8072C14.8201 18.45 14.7503 18.0061 14.5597 17.6595C14.5254 17.5848 14.4698 17.5219 14.3998 17.4787C14.3299 17.4355 14.2487 17.4139 14.1665 17.4167C14.1228 17.4167 14.0706 17.4238 13.9753 17.4407C13.9185 17.4106 13.8659 17.3734 13.8186 17.3299C13.6922 17.2268 13.52 17.085 13.2836 17.0518C13.2437 17.0471 13.2037 17.0438 13.1636 17.0419C13.0019 17.0419 12.865 17.0956 12.7549 17.1386C12.6752 17.1697 12.606 17.1972 12.5248 17.2014C12.4821 17.1858 12.4408 17.1667 12.4013 17.1443C12.2834 17.0836 12.1366 17.008 11.9602 17.008C11.8598 17.0051 11.7607 17.0313 11.675 17.0836C11.4717 17.1845 11.3588 17.368 11.2678 17.5155C11.248 17.548 11.2198 17.5932 11.1943 17.6292L11.1732 17.6023C11.1402 17.5584 11.0975 17.5227 11.0484 17.498C10.9993 17.4734 10.9451 17.4606 10.8901 17.4605C10.1759 17.4605 9.9627 17.9835 9.82153 18.3286C9.74601 18.5143 9.67896 18.678 9.55615 18.7867C9.49051 18.7803 9.4051 18.7648 9.31617 18.75C9.15074 18.7185 8.98327 18.6989 8.81504 18.6914C8.74163 18.6914 8.5193 18.6914 8.38731 18.8749C8.33058 18.9692 8.30744 19.0799 8.32167 19.189C8.34355 19.3168 8.40637 19.4156 8.48119 19.4953L7.61515 19.7177C7.56224 19.7176 7.51 19.7296 7.46234 19.7525C7.41468 19.7755 7.37282 19.809 7.33988 19.8504C7.16343 20.0706 7.29824 20.3501 7.34906 20.4553C7.54668 20.866 8.71128 22.5311 9.52721 22.5311H9.52862C10.089 22.4838 10.3756 22.3687 10.5161 22.1358Z" stroke="white" stroke-width="1.11111" stroke-linejoin="round"/>
<mask id="path-2-inside-1_849_5072" fill="white">
<path d="M32.996 30.1406C32.5348 29.4965 31.6464 29.0736 30.3524 28.8842C30.2785 28.873 30.2039 28.867 30.1292 28.8663C29.6725 28.8663 29.5807 29.1808 29.536 29.3319C29.5054 29.4352 29.4786 29.5277 29.3575 29.633C29.3256 29.6036 29.293 29.5711 29.2765 29.5545C29.2568 29.5248 29.2397 29.4934 29.2254 29.4608C29.1751 29.3587 29.1055 29.2184 29.0022 29.1444C28.9946 29.1369 28.9868 29.1297 28.9786 29.1227C29.0003 29.1144 29.0245 29.1113 29.0526 29.1074C29.2076 29.0857 29.4416 29.0526 29.7223 28.7739C30.3524 28.1087 29.698 27.1278 29.3339 26.5901C29.4231 26.5751 29.5041 26.5288 29.5622 26.4594C29.6763 26.3114 29.6413 26.129 29.5941 25.9492C29.5373 25.7508 29.4212 25.5346 29.2975 25.305C29.1291 24.9912 28.9225 24.606 28.9455 24.3432L28.9977 24.3152C29.1177 24.2527 29.3677 24.1226 29.3677 23.8254C29.3677 23.1806 28.9818 23.0741 28.7962 23.0231C28.7618 23.0135 28.7095 22.9995 28.6731 22.9433C28.6304 22.8745 28.6151 22.7552 28.5991 22.6295C28.5743 22.4306 28.543 22.1837 28.3778 21.9905C27.9786 21.4975 27.8651 21.4241 27.6176 21.3266C27.4788 21.2724 27.3456 21.2052 27.2196 21.1257C27.1866 21.1024 27.1557 21.0764 27.1272 21.0479C27.0411 20.9669 26.9339 20.8667 26.7777 20.8278C26.768 20.8253 26.7582 20.8232 26.7483 20.8215C26.5876 20.0242 26.4052 18.1632 26.3733 17.5994C26.3733 17.4043 26.3733 17.1836 26.4033 17.005C26.4065 16.9878 26.4154 16.9559 26.4154 16.938C26.4384 16.8711 26.4862 16.7308 26.3778 16.5222C26.2808 16.3927 26.1514 16.3251 26.0468 16.2709C26.0028 16.25 25.9604 16.2259 25.9198 16.1989C25.851 16.1191 25.7681 15.8576 25.7075 15.6663C25.5952 15.313 25.4989 15.0075 25.3267 14.8895C25.3184 14.8812 24.5907 14.2894 24.069 13.959C24.2501 13.943 24.5646 13.8384 24.6354 13.3238C24.6826 12.9889 24.4013 12.8104 24.2501 12.7147L24.1755 12.6681C24.1805 12.6582 24.185 12.6479 24.1889 12.6375C24.9007 12.4851 26.3357 10.2733 26.5238 9.95312C26.553 9.90937 26.5726 9.85991 26.5813 9.80802C26.59 9.75612 26.5876 9.70298 26.5742 9.65209C26.601 9.52581 26.6507 9.40974 26.6884 9.35489L27.4716 8.57298C27.5069 8.53758 27.5333 8.4943 27.5487 8.4467C27.6527 8.12972 27.58 7.83188 27.5034 7.60292C27.2094 6.95239 26.101 6.82292 25.21 6.71833C24.923 6.68452 24.6513 6.65264 24.5097 6.61182C24.4466 6.59396 24.3675 6.54166 24.284 6.48681C24.1443 6.39497 23.9861 6.29165 23.8088 6.26678C23.4517 6.19025 23.0703 6.33502 22.768 6.4664C22.6941 6.49938 22.6194 6.53064 22.5441 6.56016C22.6053 6.50403 22.6506 6.44344 22.6857 6.39752C22.7061 6.37074 22.7169 6.35224 22.7086 6.35671C22.7367 6.33566 22.775 6.3127 22.8132 6.2891C22.9874 6.18132 23.1857 6.0595 23.1755 5.82225C23.171 5.72786 23.1034 5.61434 23.0218 5.54801L23.0224 5.54737C22.9904 5.52096 22.9552 5.49848 22.9178 5.4804L23.3273 5.21892C24.8669 4.23547 25.0263 4.10664 25.0997 3.92232C25.1501 3.77117 25.1501 3.62958 25.1501 3.51606C25.1501 3.43442 25.1501 3.36363 25.1481 3.35597C25.1647 3.32919 25.2381 3.26987 25.2814 3.23416C25.4166 3.12319 25.5857 2.98415 25.5959 2.76667C25.599 2.71078 25.5907 2.65483 25.5714 2.60229C25.5521 2.54975 25.5222 2.50172 25.4836 2.46118C25.4285 2.39609 25.3594 2.3444 25.2814 2.31003C25.2033 2.27566 25.1185 2.25952 25.0333 2.26283C24.9147 2.26283 24.8031 2.28834 24.694 2.31321C24.6156 2.33107 24.5346 2.3502 24.4702 2.3502L24.2368 2.31449C23.4835 2.19777 22.4612 2.06193 21.9975 2.18566C21.9932 2.18634 21.9889 2.18741 21.9848 2.18885C21.9503 2.04981 21.8617 1.9095 21.6455 1.83998C21.5991 1.83442 21.5523 1.83399 21.5058 1.83871C21.347 1.69457 21.127 1.57786 20.891 1.46114C20.8214 1.42647 20.7416 1.41835 20.6664 1.4383C20.5913 1.45826 20.526 1.50493 20.4828 1.56957C20.4471 1.6225 20.4063 1.67288 20.3661 1.72263C20.2449 1.87251 20.0944 2.06001 20.0708 2.259C20.0596 2.29218 20.053 2.32672 20.051 2.36168C19.9573 2.38209 19.8469 2.44268 19.7978 2.50837C19.6792 2.66654 19.7073 2.86489 19.7545 3.03517C19.6837 2.96566 19.5784 2.90188 19.4962 2.90188C19.3374 2.90188 19.1958 3.04155 19.1735 3.19844C19.1505 3.3598 19.2002 3.51032 19.2513 3.63723C19.0644 3.59897 18.8125 3.76925 18.7972 3.9676C18.7885 4.07011 18.7969 4.17334 18.822 4.27309C18.7676 4.25161 18.7097 4.24036 18.6511 4.23993C18.5463 4.24681 18.4469 4.28908 18.3692 4.35983C18.34 4.39188 18.3159 4.42823 18.2978 4.46762C18.2379 4.42924 18.168 4.40928 18.0969 4.41022C18.0434 4.414 17.9908 4.4256 17.9406 4.44466C17.6524 4.56265 17.5465 4.76737 17.5082 4.91852C17.3858 5.40132 17.7939 5.98042 18.1632 6.43069L18.1843 6.44663C18.1983 6.48171 18.1932 6.60098 18.1894 6.68006C18.1875 6.73555 18.1849 6.79231 18.1849 6.84907C18.1849 6.94665 18.1983 7.05124 18.2136 7.15712C18.2225 7.22089 18.241 7.35164 18.2359 7.42052C18.1945 7.4186 18.1505 7.41223 18.1071 7.40649C18.0324 7.39493 17.9569 7.38833 17.8813 7.38671C17.565 7.38671 17.4406 7.56784 17.3941 7.67563C17.3625 7.74924 17.3598 7.83204 17.3865 7.90755C17.4132 7.98305 17.4674 8.04575 17.5382 8.08316C17.6556 8.14503 17.7812 8.23113 17.8673 8.30384L17.8437 8.30894C17.808 8.30894 17.7314 8.27195 17.6696 8.24197C17.5191 8.16863 17.2678 8.08891 17.0994 8.13801C16.8539 8.19924 16.5592 8.30511 16.4648 8.57617C16.3979 8.76814 16.4667 8.9397 16.5541 9.07809C16.1868 9.02069 15.8309 9.05131 15.6529 9.29111C15.6155 9.34431 15.5909 9.40539 15.5808 9.46963C15.5707 9.53388 15.5756 9.59957 15.5949 9.66166C15.3691 9.76243 15.2307 9.88105 15.2416 10.0871C15.2569 10.369 15.5362 10.4295 15.7205 10.4691C15.7658 10.4786 15.8392 10.4946 15.9017 10.5125C15.813 10.6324 15.7461 10.7191 15.6957 10.7816C15.5668 10.6968 15.3519 10.6623 15.0847 10.7701L15.0866 10.7746C14.9919 10.8165 14.9156 10.8913 14.8717 10.985C14.8444 11.0473 14.8327 11.1152 14.8376 11.183C14.8425 11.2508 14.8638 11.3164 14.8997 11.3741C14.9941 11.5405 15.2001 11.7249 15.6491 11.7249C15.9929 11.7249 16.4361 11.6101 16.7869 11.4627C16.7423 11.6177 16.7384 11.8059 16.7352 12.0029C16.7321 12.1637 16.7276 12.4066 16.7008 12.4647C16.6683 12.5036 16.5286 12.5757 16.4533 12.6139C16.2461 12.7204 16.0318 12.8314 16.0056 13.0699C15.9929 13.1854 16.0331 13.2976 16.1466 13.406C16.0669 13.5202 16.0318 13.6395 16.0981 13.7696C16.1236 13.8333 16.1619 13.8869 16.211 13.929L15.9827 14.1242C15.965 14.1394 15.9489 14.1565 15.9348 14.1752C15.7888 14.3704 15.7454 14.5987 15.7071 14.7996C15.6791 14.9456 15.6529 15.084 15.579 15.1848C15.5605 15.2109 15.489 15.2741 15.4418 15.3162C15.2715 15.4673 15.0783 15.6383 15.1102 15.88C15.1274 16.0094 15.209 16.1198 15.3647 16.1957C15.6791 16.313 16.0726 16.2543 16.4368 16.0458C16.4816 16.0216 16.5209 15.9883 16.5521 15.948C16.5833 15.9076 16.6057 15.8612 16.6179 15.8117C16.6276 15.762 16.6269 15.7109 16.6158 15.6615C16.6047 15.6121 16.5835 15.5655 16.5535 15.5247C16.5847 15.4845 16.6224 15.4425 16.6638 15.3978C16.7703 15.2805 16.8921 15.1478 16.9508 14.9864C17.0139 14.8621 16.9948 14.739 16.9687 14.6382C16.979 14.6105 16.9839 14.5811 16.9833 14.5515C16.9859 14.5432 16.9999 14.5177 16.9942 14.5151C17.0178 14.5043 17.0465 14.4998 17.0739 14.4928C17.197 14.4635 17.4534 14.4016 17.5242 14.1178C17.5688 13.8723 17.4859 13.6427 17.4126 13.4398C17.3807 13.3525 17.3328 13.2198 17.3188 13.2109C17.41 13.1394 17.88 12.8735 18.248 12.6771C18.2403 12.7246 18.2316 12.7721 18.2219 12.8193C18.1894 12.9896 18.1537 13.1758 18.1875 13.362C18.1533 13.4067 18.1246 13.4553 18.102 13.5068C18.0312 13.6969 18.0312 13.8869 18.0312 14.0393C18.0312 14.1165 18.0312 14.1905 18.0184 14.2568C17.7225 14.4156 17.7614 14.6471 17.8086 14.7804C17.8175 14.7989 17.8539 14.8544 17.9107 14.9316C18.169 15.2824 18.2742 15.4692 18.315 15.5681L18.3067 15.5706C18.2142 15.6038 18.0994 15.6446 18.0165 15.7288C17.5733 16.13 17.424 16.2652 17.5172 16.5063C17.5225 16.5201 17.5289 16.5336 17.5363 16.5464L17.514 16.572C17.4215 16.6772 17.3424 16.7582 17.2754 16.8277C16.9833 17.1287 16.8628 17.299 16.8558 17.8105C16.6785 17.815 16.4106 17.8226 16.3417 18.0835C16.3105 18.2008 16.3245 18.3718 16.5707 18.5197C16.9036 18.7162 17.1377 18.8035 17.3296 18.8035C17.3934 18.8035 17.4802 18.7933 17.565 18.7493C17.6441 18.8495 17.7251 18.9553 17.7608 19.0012C17.7933 19.0497 17.8265 19.1211 17.8622 19.1951C17.9897 19.4592 18.1224 19.7315 18.4037 19.7315C18.5344 19.7315 18.6543 19.6639 18.7385 19.537C18.8035 19.433 18.8437 19.3284 18.866 19.227C18.8916 19.2697 18.9209 19.3125 18.9566 19.3552C19.0331 19.4317 19.1339 19.4815 19.2334 19.4936C19.3667 19.5867 19.5982 19.5861 19.7092 19.528C19.8336 19.4777 19.9273 19.4005 20.0019 19.3386C20.0644 19.2863 20.1142 19.2455 20.1263 19.2385C20.1499 19.2385 20.1977 19.25 20.2405 19.2595C20.3412 19.2831 20.4726 19.3074 20.5931 19.2914C19.8846 20.104 19.9095 20.4012 19.919 20.5172C19.9221 20.5562 19.9323 20.5942 19.949 20.6295L20.3208 21.4012L20.2972 21.4745C20.2481 21.6219 20.1735 21.8457 20.2825 22.0638C20.3508 22.201 20.4739 22.2992 20.6684 22.3636C20.6818 22.3668 20.7003 22.3706 20.7188 22.3725C20.6761 22.5581 20.6614 22.7405 20.7775 22.8923C20.8578 22.9969 20.9969 23.0422 21.1455 23.0543C21.2078 23.0495 21.2693 23.0368 21.3285 23.0167C21.3257 23.0444 21.3255 23.0724 21.3279 23.1002C20.9956 23.0741 20.817 23.2016 20.743 23.3164C20.5944 23.5492 20.6946 23.8362 20.7858 24.0288C20.8199 24.1273 20.8825 24.2134 20.9656 24.2763C20.7966 24.4102 20.5211 24.6417 20.4681 24.9568C20.4477 25.0714 20.441 25.1881 20.4484 25.3044C20.3929 25.3184 20.3411 25.3444 20.2967 25.3805C20.2523 25.4166 20.2163 25.4621 20.1913 25.5136C19.956 25.3815 19.6964 25.4657 19.5395 25.5474C19.4554 25.5977 19.3581 25.6217 19.2602 25.6162C19.2309 25.6118 19.1626 25.5563 19.1135 25.5155C19.0057 25.4268 18.8578 25.3057 18.7053 25.2897C18.5701 25.2457 18.3839 25.3031 18.3074 25.4262C18.2738 25.4787 18.2567 25.54 18.2583 25.6022C18.0937 25.6258 18.0261 25.608 17.9406 25.5971C17.8677 25.5874 17.7942 25.5821 17.7206 25.5812C17.6946 25.5828 17.6687 25.5869 17.6434 25.5933L17.3915 25.1213C17.4572 25.0874 17.5089 25.0314 17.5376 24.9632C17.5663 24.895 17.5701 24.819 17.5484 24.7482C17.5226 24.6678 17.466 24.6008 17.3909 24.562C17.3158 24.5233 17.2284 24.5159 17.1479 24.5416C16.815 24.6481 16.5752 24.7655 16.484 24.9919C16.3915 25.2234 16.505 25.43 16.6051 25.6111C16.6549 25.7023 16.7104 25.8025 16.7646 25.9434C16.7136 26.0193 16.6523 26.1501 16.7244 26.3012C16.7365 26.3261 16.7646 26.3414 16.7844 26.3637C16.7818 26.3829 16.7761 26.4052 16.7741 26.4224L16.7722 26.4466C16.6198 26.5429 16.4291 26.6112 16.2582 26.6718C15.9661 26.7751 15.5247 26.932 15.637 27.3153C15.6727 27.5245 15.7677 28.0806 16.2206 28.08C16.4591 28.08 16.6447 27.9052 16.8239 27.7349C16.9113 27.6527 17.0733 27.499 17.1236 27.4881L17.1747 27.5379C17.2901 27.7152 17.4138 28.7075 17.3934 28.8695C17.2238 29.2656 16.2091 30.1087 15.8066 30.2121C15.7881 30.2095 15.7358 30.1859 15.7014 30.1706C15.5753 30.107 15.4357 30.0747 15.2945 30.0762C15.0228 30.1151 14.887 30.3237 14.8066 30.448C14.7881 30.4767 14.762 30.5169 14.7792 30.5227C14.7275 30.522 14.658 30.5137 14.5776 30.5054C14.4138 30.486 14.249 30.4749 14.084 30.4723C13.2096 30.4723 13.1152 30.987 13.1152 31.2076C13.1152 31.2593 13.1114 31.3129 13.1076 31.3677C13.0929 31.5852 13.0744 31.8556 13.2472 32.1126C13.3068 32.1881 13.3877 32.2439 13.4794 32.2727C13.4806 32.3407 13.497 32.4076 13.5272 32.4685C13.6465 32.7121 13.9718 32.8786 14.1146 32.9041C14.3429 32.9806 14.6191 32.9621 14.996 32.8378C15.0427 32.8223 15.0853 32.7964 15.1204 32.7619C15.1808 32.6992 15.2227 32.6211 15.2416 32.5361C15.3564 32.5055 15.4278 32.4927 15.4724 32.4876C15.5216 32.5291 15.5796 32.5578 15.6504 32.5725C15.7288 33.3442 15.7448 33.5043 15.9438 33.6025C16.2021 33.7326 16.535 33.6152 16.7831 33.496C16.8609 33.4583 16.9904 33.3958 16.9827 33.3722C17.0707 33.4609 17.1179 33.621 17.1689 33.79C17.2461 34.0489 17.3335 34.3423 17.63 34.5483C18.4088 34.9877 18.7863 34.7352 19.0382 34.5056C19.1218 34.429 19.2028 34.3557 19.3176 34.2932C19.1511 34.4105 19.132 34.4392 19.1014 34.5011C19.0376 34.628 19.0191 34.7639 19.0019 34.8838C18.9904 34.966 18.9732 35.0898 18.9496 35.1095C18.69 35.3155 18.2857 35.1083 17.8756 34.8959C17.6064 34.7562 17.3277 34.6121 17.0611 34.57C16.8467 34.5289 16.629 34.5067 16.4106 34.5036C15.556 34.5036 15.4131 34.989 15.3366 35.2498C15.3253 35.2794 15.3193 35.3107 15.3187 35.3423L15.2837 35.306C15.1861 35.2071 15.0528 35.0719 14.8513 35.0719C14.8003 35.0731 14.7498 35.0828 14.702 35.1006C14.3876 35.2358 14.3334 35.6465 14.2855 36.0094C14.2741 36.0962 14.26 36.2333 14.276 36.2097C14.2307 36.2645 14.1363 36.3079 14.0368 36.3545C13.9112 36.4125 13.7683 36.4782 13.6969 36.5579C13.6289 36.6036 13.5738 36.666 13.5368 36.739C13.4707 36.7219 13.4019 36.7187 13.3345 36.7294C13.2671 36.7402 13.2027 36.7647 13.1452 36.8016C12.9692 36.9272 12.8671 37.0911 12.7772 37.2365C12.7383 37.299 12.7032 37.3564 12.6643 37.4062C12.5466 37.387 12.426 37.4139 12.3276 37.4814C12.2319 37.5458 12.1771 37.6466 12.1643 37.7882C12.0961 37.873 12.0419 37.9157 12.0138 37.933C11.5565 37.9381 10.3588 38.0038 10.3588 38.558C10.3588 39.0344 10.8607 39.0988 11.1018 39.1294C11.2019 39.1428 11.3881 39.1664 11.4398 39.2187C11.4525 39.2461 11.4621 39.3354 11.4685 39.389C11.4889 39.5669 11.531 39.9375 11.8843 39.9955C11.9016 39.9986 11.9191 40.0001 11.9366 40C12.2434 40 12.5476 39.47 12.7702 38.9598C12.8014 38.9662 12.8346 38.9732 12.8684 38.9815C13.0368 39.0216 13.193 39.081 13.4749 38.9796C13.6656 38.8839 13.7154 38.69 13.7415 38.579C13.9424 38.5682 14.2179 38.6798 14.4756 38.7914C14.6478 38.8654 14.8104 38.9343 14.9603 38.9713C15.086 39.0006 15.1803 39.0019 15.2569 38.9834L15.2907 39.0178C15.7033 39.4273 16.1625 39.9088 16.6638 39.6971C17.1964 39.4483 17.5395 38.3399 17.6791 37.7946C17.7589 37.7805 17.8507 37.7735 17.9515 37.7735C18.5287 37.7735 19.2691 38.0069 19.5714 38.3048C19.6856 38.3966 19.8023 38.491 19.8501 38.5605C19.8441 38.5844 19.8371 38.608 19.8291 38.6313C19.8023 38.7232 19.7608 38.8616 19.8616 38.9961C19.8918 39.0362 19.9308 39.0687 19.9756 39.0911C20.0204 39.1136 20.0698 39.1254 20.1199 39.1256C20.2098 39.1219 20.2952 39.0851 20.3597 39.0223C20.3785 39.0035 20.395 38.9825 20.4088 38.9598C20.4796 38.8412 20.5007 38.7123 20.5173 38.609L20.5243 38.5669C20.6269 38.6141 20.7826 38.7034 20.9898 38.8341L21.0944 38.8992C21.1595 38.934 21.2313 38.9547 21.3049 38.9598C21.37 38.9853 21.4503 39.0178 21.5447 39.0178C21.7086 39.0178 21.8489 38.9177 21.9127 38.7123C21.9289 38.6024 21.9123 38.4901 21.8649 38.3896L21.9752 38.4036C22.3126 38.447 22.6953 38.4968 22.9976 38.4968C23.298 38.4968 23.5059 38.4343 23.6194 38.3169C23.6985 38.3737 23.7839 38.4202 23.8771 38.4521C23.9197 38.4645 23.964 38.4705 24.0084 38.47C24.0218 38.477 24.0359 38.4827 24.0492 38.4872C24.0796 38.4962 24.1108 38.5022 24.1424 38.5051C24.2256 38.5843 24.3329 38.6337 24.4472 38.6454C24.6468 38.7971 24.9549 38.7972 25.0786 38.7972C25.416 38.7972 25.8344 38.7366 26.1699 38.6881C26.3612 38.6607 26.5187 38.6358 26.564 38.6301C26.6386 38.646 26.8363 38.7895 26.9664 38.8839C27.2502 39.0893 27.5187 39.2838 27.7892 39.2838C28.057 39.2838 28.2075 39.0988 28.2981 38.9885C28.3178 38.9623 28.3395 38.9378 28.3632 38.9151C28.4863 38.8597 28.6125 38.8424 28.7573 38.822C28.9512 38.7952 29.1674 38.7659 29.383 38.6339C29.4971 38.7512 29.6878 38.8622 30.1209 38.7168C30.3855 38.6077 30.4174 38.3386 30.434 38.1938L30.4378 38.1638C30.5163 38.1447 30.6151 38.1326 30.7121 38.1217C31.0201 38.086 31.4423 38.0376 31.5756 37.5758C31.5903 37.4578 31.5935 37.3456 31.5967 37.2365C31.6005 37.0994 31.6037 36.9808 31.6139 36.9183C31.6267 36.9017 31.6719 36.8615 31.6987 36.8379C31.802 36.748 31.9577 36.6121 31.906 36.3972C31.8824 36.2958 31.7791 36.1906 31.6821 36.1517C31.3499 36.0196 30.9417 36.086 30.6202 36.1651C30.566 36.1784 30.5131 36.1912 30.4614 36.2027C30.4181 36.0941 30.3489 35.9978 30.2599 35.9221L30.198 35.8736L30.1757 35.8564C30.323 35.7996 30.4716 35.7001 30.5794 35.5247C30.6904 35.3391 30.7504 35.1599 30.7606 35.0024C30.784 35.0058 30.8077 35.0075 30.8314 35.0075C30.8601 35.0075 30.9411 34.9947 30.9691 34.9877C31.4168 34.8646 31.7408 34.7753 31.7593 34.4724C31.7643 34.4122 31.7528 34.3518 31.7262 34.2976C32.4507 33.9392 33.2013 32.3786 33.3066 31.7797C33.4258 31.1451 33.3206 30.5941 32.996 30.1406ZM25.9103 1.99305C26.2049 1.99305 26.4486 1.84381 26.5787 1.5836C26.6164 1.50805 26.6225 1.42065 26.5959 1.34054C26.5692 1.26044 26.5119 1.19418 26.4364 1.15629C26.3732 1.12522 26.3085 1.09712 26.2426 1.0721C26.1921 1.05405 26.1433 1.03187 26.0965 1.00577C26.0732 0.990169 26.0479 0.977731 26.0213 0.968781C25.9944 0.959684 25.9671 0.951599 25.9396 0.944545C25.9561 0.896285 25.9647 0.845675 25.9651 0.794668H25.9664C25.9664 0.378839 25.6207 0 25.2183 0H25.2164C24.4574 0.0542109 24.4153 0.542109 24.4204 0.690711C24.4415 1.27491 25.2623 1.99305 25.9103 1.99305ZM15.2715 4.99123C15.6179 4.99123 15.7735 4.69275 15.866 4.51417L15.9183 4.41659C16.005 4.4504 16.1606 4.46443 16.2639 4.41341C16.3272 4.383 16.3818 4.33716 16.4227 4.28011C16.4814 4.31072 16.5509 4.33368 16.6332 4.34516C17.292 4.34516 17.3979 3.44781 17.4432 3.06451C17.4464 3.03645 17.4496 3.01158 17.4476 3.00647C17.4859 2.95418 17.6052 2.85213 17.6862 2.78261C17.8431 2.64868 18.0204 2.49625 18.1281 2.32405C18.1531 2.2811 18.1683 2.23322 18.1729 2.18376C18.1774 2.1343 18.171 2.08445 18.1543 2.03769C18.1451 1.99551 18.1396 1.95262 18.1377 1.9095C18.1243 1.75707 18.0937 1.39928 17.734 1.32912C17.7047 1.3263 17.6754 1.32439 17.646 1.32338C17.3532 1.32338 17.1377 1.52683 16.9648 1.69074C16.9296 1.72461 16.8936 1.75778 16.8571 1.79024C16.8438 1.79924 16.8312 1.80926 16.8194 1.82021C16.7405 1.77291 16.6506 1.74717 16.5586 1.74559C16.3322 1.74559 16.1663 1.9095 16.0675 2.03068C16.0131 2.08427 15.9754 2.15251 15.9591 2.22711C15.8667 2.16267 15.7573 2.12695 15.6446 2.12443C15.2575 2.12443 15.0993 2.56258 15.0311 2.7571C15.0024 2.8719 14.9999 2.98862 15.0254 3.11107C14.9888 3.13879 14.9579 3.1732 14.9342 3.21247C14.9085 3.26015 14.8927 3.31251 14.8878 3.36644C14.8828 3.42036 14.8889 3.47472 14.9055 3.52626C14.9271 3.58366 14.9565 3.63404 14.9909 3.67869C14.9311 3.6911 14.8744 3.7156 14.8244 3.7507C14.7744 3.78579 14.7321 3.83074 14.7001 3.88278C14.5687 4.07921 14.5706 4.35664 14.7046 4.60665C14.8328 4.84773 15.0451 4.99123 15.2715 4.99123Z"/>
</mask>
<path d="M32.996 30.1406C32.5348 29.4965 31.6464 29.0736 30.3524 28.8842C30.2785 28.873 30.2039 28.867 30.1292 28.8663C29.6725 28.8663 29.5807 29.1808 29.536 29.3319C29.5054 29.4352 29.4786 29.5277 29.3575 29.633C29.3256 29.6036 29.293 29.5711 29.2765 29.5545C29.2568 29.5248 29.2397 29.4934 29.2254 29.4608C29.1751 29.3587 29.1055 29.2184 29.0022 29.1444C28.9946 29.1369 28.9868 29.1297 28.9786 29.1227C29.0003 29.1144 29.0245 29.1113 29.0526 29.1074C29.2076 29.0857 29.4416 29.0526 29.7223 28.7739C30.3524 28.1087 29.698 27.1278 29.3339 26.5901C29.4231 26.5751 29.5041 26.5288 29.5622 26.4594C29.6763 26.3114 29.6413 26.129 29.5941 25.9492C29.5373 25.7508 29.4212 25.5346 29.2975 25.305C29.1291 24.9912 28.9225 24.606 28.9455 24.3432L28.9977 24.3152C29.1177 24.2527 29.3677 24.1226 29.3677 23.8254C29.3677 23.1806 28.9818 23.0741 28.7962 23.0231C28.7618 23.0135 28.7095 22.9995 28.6731 22.9433C28.6304 22.8745 28.6151 22.7552 28.5991 22.6295C28.5743 22.4306 28.543 22.1837 28.3778 21.9905C27.9786 21.4975 27.8651 21.4241 27.6176 21.3266C27.4788 21.2724 27.3456 21.2052 27.2196 21.1257C27.1866 21.1024 27.1557 21.0764 27.1272 21.0479C27.0411 20.9669 26.9339 20.8667 26.7777 20.8278C26.768 20.8253 26.7582 20.8232 26.7483 20.8215C26.5876 20.0242 26.4052 18.1632 26.3733 17.5994C26.3733 17.4043 26.3733 17.1836 26.4033 17.005C26.4065 16.9878 26.4154 16.9559 26.4154 16.938C26.4384 16.8711 26.4862 16.7308 26.3778 16.5222C26.2808 16.3927 26.1514 16.3251 26.0468 16.2709C26.0028 16.25 25.9604 16.2259 25.9198 16.1989C25.851 16.1191 25.7681 15.8576 25.7075 15.6663C25.5952 15.313 25.4989 15.0075 25.3267 14.8895C25.3184 14.8812 24.5907 14.2894 24.069 13.959C24.2501 13.943 24.5646 13.8384 24.6354 13.3238C24.6826 12.9889 24.4013 12.8104 24.2501 12.7147L24.1755 12.6681C24.1805 12.6582 24.185 12.6479 24.1889 12.6375C24.9007 12.4851 26.3357 10.2733 26.5238 9.95312C26.553 9.90937 26.5726 9.85991 26.5813 9.80802C26.59 9.75612 26.5876 9.70298 26.5742 9.65209C26.601 9.52581 26.6507 9.40974 26.6884 9.35489L27.4716 8.57298C27.5069 8.53758 27.5333 8.4943 27.5487 8.4467C27.6527 8.12972 27.58 7.83188 27.5034 7.60292C27.2094 6.95239 26.101 6.82292 25.21 6.71833C24.923 6.68452 24.6513 6.65264 24.5097 6.61182C24.4466 6.59396 24.3675 6.54166 24.284 6.48681C24.1443 6.39497 23.9861 6.29165 23.8088 6.26678C23.4517 6.19025 23.0703 6.33502 22.768 6.4664C22.6941 6.49938 22.6194 6.53064 22.5441 6.56016C22.6053 6.50403 22.6506 6.44344 22.6857 6.39752C22.7061 6.37074 22.7169 6.35224 22.7086 6.35671C22.7367 6.33566 22.775 6.3127 22.8132 6.2891C22.9874 6.18132 23.1857 6.0595 23.1755 5.82225C23.171 5.72786 23.1034 5.61434 23.0218 5.54801L23.0224 5.54737C22.9904 5.52096 22.9552 5.49848 22.9178 5.4804L23.3273 5.21892C24.8669 4.23547 25.0263 4.10664 25.0997 3.92232C25.1501 3.77117 25.1501 3.62958 25.1501 3.51606C25.1501 3.43442 25.1501 3.36363 25.1481 3.35597C25.1647 3.32919 25.2381 3.26987 25.2814 3.23416C25.4166 3.12319 25.5857 2.98415 25.5959 2.76667C25.599 2.71078 25.5907 2.65483 25.5714 2.60229C25.5521 2.54975 25.5222 2.50172 25.4836 2.46118C25.4285 2.39609 25.3594 2.3444 25.2814 2.31003C25.2033 2.27566 25.1185 2.25952 25.0333 2.26283C24.9147 2.26283 24.8031 2.28834 24.694 2.31321C24.6156 2.33107 24.5346 2.3502 24.4702 2.3502L24.2368 2.31449C23.4835 2.19777 22.4612 2.06193 21.9975 2.18566C21.9932 2.18634 21.9889 2.18741 21.9848 2.18885C21.9503 2.04981 21.8617 1.9095 21.6455 1.83998C21.5991 1.83442 21.5523 1.83399 21.5058 1.83871C21.347 1.69457 21.127 1.57786 20.891 1.46114C20.8214 1.42647 20.7416 1.41835 20.6664 1.4383C20.5913 1.45826 20.526 1.50493 20.4828 1.56957C20.4471 1.6225 20.4063 1.67288 20.3661 1.72263C20.2449 1.87251 20.0944 2.06001 20.0708 2.259C20.0596 2.29218 20.053 2.32672 20.051 2.36168C19.9573 2.38209 19.8469 2.44268 19.7978 2.50837C19.6792 2.66654 19.7073 2.86489 19.7545 3.03517C19.6837 2.96566 19.5784 2.90188 19.4962 2.90188C19.3374 2.90188 19.1958 3.04155 19.1735 3.19844C19.1505 3.3598 19.2002 3.51032 19.2513 3.63723C19.0644 3.59897 18.8125 3.76925 18.7972 3.9676C18.7885 4.07011 18.7969 4.17334 18.822 4.27309C18.7676 4.25161 18.7097 4.24036 18.6511 4.23993C18.5463 4.24681 18.4469 4.28908 18.3692 4.35983C18.34 4.39188 18.3159 4.42823 18.2978 4.46762C18.2379 4.42924 18.168 4.40928 18.0969 4.41022C18.0434 4.414 17.9908 4.4256 17.9406 4.44466C17.6524 4.56265 17.5465 4.76737 17.5082 4.91852C17.3858 5.40132 17.7939 5.98042 18.1632 6.43069L18.1843 6.44663C18.1983 6.48171 18.1932 6.60098 18.1894 6.68006C18.1875 6.73555 18.1849 6.79231 18.1849 6.84907C18.1849 6.94665 18.1983 7.05124 18.2136 7.15712C18.2225 7.22089 18.241 7.35164 18.2359 7.42052C18.1945 7.4186 18.1505 7.41223 18.1071 7.40649C18.0324 7.39493 17.9569 7.38833 17.8813 7.38671C17.565 7.38671 17.4406 7.56784 17.3941 7.67563C17.3625 7.74924 17.3598 7.83204 17.3865 7.90755C17.4132 7.98305 17.4674 8.04575 17.5382 8.08316C17.6556 8.14503 17.7812 8.23113 17.8673 8.30384L17.8437 8.30894C17.808 8.30894 17.7314 8.27195 17.6696 8.24197C17.5191 8.16863 17.2678 8.08891 17.0994 8.13801C16.8539 8.19924 16.5592 8.30511 16.4648 8.57617C16.3979 8.76814 16.4667 8.9397 16.5541 9.07809C16.1868 9.02069 15.8309 9.05131 15.6529 9.29111C15.6155 9.34431 15.5909 9.40539 15.5808 9.46963C15.5707 9.53388 15.5756 9.59957 15.5949 9.66166C15.3691 9.76243 15.2307 9.88105 15.2416 10.0871C15.2569 10.369 15.5362 10.4295 15.7205 10.4691C15.7658 10.4786 15.8392 10.4946 15.9017 10.5125C15.813 10.6324 15.7461 10.7191 15.6957 10.7816C15.5668 10.6968 15.3519 10.6623 15.0847 10.7701L15.0866 10.7746C14.9919 10.8165 14.9156 10.8913 14.8717 10.985C14.8444 11.0473 14.8327 11.1152 14.8376 11.183C14.8425 11.2508 14.8638 11.3164 14.8997 11.3741C14.9941 11.5405 15.2001 11.7249 15.6491 11.7249C15.9929 11.7249 16.4361 11.6101 16.7869 11.4627C16.7423 11.6177 16.7384 11.8059 16.7352 12.0029C16.7321 12.1637 16.7276 12.4066 16.7008 12.4647C16.6683 12.5036 16.5286 12.5757 16.4533 12.6139C16.2461 12.7204 16.0318 12.8314 16.0056 13.0699C15.9929 13.1854 16.0331 13.2976 16.1466 13.406C16.0669 13.5202 16.0318 13.6395 16.0981 13.7696C16.1236 13.8333 16.1619 13.8869 16.211 13.929L15.9827 14.1242C15.965 14.1394 15.9489 14.1565 15.9348 14.1752C15.7888 14.3704 15.7454 14.5987 15.7071 14.7996C15.6791 14.9456 15.6529 15.084 15.579 15.1848C15.5605 15.2109 15.489 15.2741 15.4418 15.3162C15.2715 15.4673 15.0783 15.6383 15.1102 15.88C15.1274 16.0094 15.209 16.1198 15.3647 16.1957C15.6791 16.313 16.0726 16.2543 16.4368 16.0458C16.4816 16.0216 16.5209 15.9883 16.5521 15.948C16.5833 15.9076 16.6057 15.8612 16.6179 15.8117C16.6276 15.762 16.6269 15.7109 16.6158 15.6615C16.6047 15.6121 16.5835 15.5655 16.5535 15.5247C16.5847 15.4845 16.6224 15.4425 16.6638 15.3978C16.7703 15.2805 16.8921 15.1478 16.9508 14.9864C17.0139 14.8621 16.9948 14.739 16.9687 14.6382C16.979 14.6105 16.9839 14.5811 16.9833 14.5515C16.9859 14.5432 16.9999 14.5177 16.9942 14.5151C17.0178 14.5043 17.0465 14.4998 17.0739 14.4928C17.197 14.4635 17.4534 14.4016 17.5242 14.1178C17.5688 13.8723 17.4859 13.6427 17.4126 13.4398C17.3807 13.3525 17.3328 13.2198 17.3188 13.2109C17.41 13.1394 17.88 12.8735 18.248 12.6771C18.2403 12.7246 18.2316 12.7721 18.2219 12.8193C18.1894 12.9896 18.1537 13.1758 18.1875 13.362C18.1533 13.4067 18.1246 13.4553 18.102 13.5068C18.0312 13.6969 18.0312 13.8869 18.0312 14.0393C18.0312 14.1165 18.0312 14.1905 18.0184 14.2568C17.7225 14.4156 17.7614 14.6471 17.8086 14.7804C17.8175 14.7989 17.8539 14.8544 17.9107 14.9316C18.169 15.2824 18.2742 15.4692 18.315 15.5681L18.3067 15.5706C18.2142 15.6038 18.0994 15.6446 18.0165 15.7288C17.5733 16.13 17.424 16.2652 17.5172 16.5063C17.5225 16.5201 17.5289 16.5336 17.5363 16.5464L17.514 16.572C17.4215 16.6772 17.3424 16.7582 17.2754 16.8277C16.9833 17.1287 16.8628 17.299 16.8558 17.8105C16.6785 17.815 16.4106 17.8226 16.3417 18.0835C16.3105 18.2008 16.3245 18.3718 16.5707 18.5197C16.9036 18.7162 17.1377 18.8035 17.3296 18.8035C17.3934 18.8035 17.4802 18.7933 17.565 18.7493C17.6441 18.8495 17.7251 18.9553 17.7608 19.0012C17.7933 19.0497 17.8265 19.1211 17.8622 19.1951C17.9897 19.4592 18.1224 19.7315 18.4037 19.7315C18.5344 19.7315 18.6543 19.6639 18.7385 19.537C18.8035 19.433 18.8437 19.3284 18.866 19.227C18.8916 19.2697 18.9209 19.3125 18.9566 19.3552C19.0331 19.4317 19.1339 19.4815 19.2334 19.4936C19.3667 19.5867 19.5982 19.5861 19.7092 19.528C19.8336 19.4777 19.9273 19.4005 20.0019 19.3386C20.0644 19.2863 20.1142 19.2455 20.1263 19.2385C20.1499 19.2385 20.1977 19.25 20.2405 19.2595C20.3412 19.2831 20.4726 19.3074 20.5931 19.2914C19.8846 20.104 19.9095 20.4012 19.919 20.5172C19.9221 20.5562 19.9323 20.5942 19.949 20.6295L20.3208 21.4012L20.2972 21.4745C20.2481 21.6219 20.1735 21.8457 20.2825 22.0638C20.3508 22.201 20.4739 22.2992 20.6684 22.3636C20.6818 22.3668 20.7003 22.3706 20.7188 22.3725C20.6761 22.5581 20.6614 22.7405 20.7775 22.8923C20.8578 22.9969 20.9969 23.0422 21.1455 23.0543C21.2078 23.0495 21.2693 23.0368 21.3285 23.0167C21.3257 23.0444 21.3255 23.0724 21.3279 23.1002C20.9956 23.0741 20.817 23.2016 20.743 23.3164C20.5944 23.5492 20.6946 23.8362 20.7858 24.0288C20.8199 24.1273 20.8825 24.2134 20.9656 24.2763C20.7966 24.4102 20.5211 24.6417 20.4681 24.9568C20.4477 25.0714 20.441 25.1881 20.4484 25.3044C20.3929 25.3184 20.3411 25.3444 20.2967 25.3805C20.2523 25.4166 20.2163 25.4621 20.1913 25.5136C19.956 25.3815 19.6964 25.4657 19.5395 25.5474C19.4554 25.5977 19.3581 25.6217 19.2602 25.6162C19.2309 25.6118 19.1626 25.5563 19.1135 25.5155C19.0057 25.4268 18.8578 25.3057 18.7053 25.2897C18.5701 25.2457 18.3839 25.3031 18.3074 25.4262C18.2738 25.4787 18.2567 25.54 18.2583 25.6022C18.0937 25.6258 18.0261 25.608 17.9406 25.5971C17.8677 25.5874 17.7942 25.5821 17.7206 25.5812C17.6946 25.5828 17.6687 25.5869 17.6434 25.5933L17.3915 25.1213C17.4572 25.0874 17.5089 25.0314 17.5376 24.9632C17.5663 24.895 17.5701 24.819 17.5484 24.7482C17.5226 24.6678 17.466 24.6008 17.3909 24.562C17.3158 24.5233 17.2284 24.5159 17.1479 24.5416C16.815 24.6481 16.5752 24.7655 16.484 24.9919C16.3915 25.2234 16.505 25.43 16.6051 25.6111C16.6549 25.7023 16.7104 25.8025 16.7646 25.9434C16.7136 26.0193 16.6523 26.1501 16.7244 26.3012C16.7365 26.3261 16.7646 26.3414 16.7844 26.3637C16.7818 26.3829 16.7761 26.4052 16.7741 26.4224L16.7722 26.4466C16.6198 26.5429 16.4291 26.6112 16.2582 26.6718C15.9661 26.7751 15.5247 26.932 15.637 27.3153C15.6727 27.5245 15.7677 28.0806 16.2206 28.08C16.4591 28.08 16.6447 27.9052 16.8239 27.7349C16.9113 27.6527 17.0733 27.499 17.1236 27.4881L17.1747 27.5379C17.2901 27.7152 17.4138 28.7075 17.3934 28.8695C17.2238 29.2656 16.2091 30.1087 15.8066 30.2121C15.7881 30.2095 15.7358 30.1859 15.7014 30.1706C15.5753 30.107 15.4357 30.0747 15.2945 30.0762C15.0228 30.1151 14.887 30.3237 14.8066 30.448C14.7881 30.4767 14.762 30.5169 14.7792 30.5227C14.7275 30.522 14.658 30.5137 14.5776 30.5054C14.4138 30.486 14.249 30.4749 14.084 30.4723C13.2096 30.4723 13.1152 30.987 13.1152 31.2076C13.1152 31.2593 13.1114 31.3129 13.1076 31.3677C13.0929 31.5852 13.0744 31.8556 13.2472 32.1126C13.3068 32.1881 13.3877 32.2439 13.4794 32.2727C13.4806 32.3407 13.497 32.4076 13.5272 32.4685C13.6465 32.7121 13.9718 32.8786 14.1146 32.9041C14.3429 32.9806 14.6191 32.9621 14.996 32.8378C15.0427 32.8223 15.0853 32.7964 15.1204 32.7619C15.1808 32.6992 15.2227 32.6211 15.2416 32.5361C15.3564 32.5055 15.4278 32.4927 15.4724 32.4876C15.5216 32.5291 15.5796 32.5578 15.6504 32.5725C15.7288 33.3442 15.7448 33.5043 15.9438 33.6025C16.2021 33.7326 16.535 33.6152 16.7831 33.496C16.8609 33.4583 16.9904 33.3958 16.9827 33.3722C17.0707 33.4609 17.1179 33.621 17.1689 33.79C17.2461 34.0489 17.3335 34.3423 17.63 34.5483C18.4088 34.9877 18.7863 34.7352 19.0382 34.5056C19.1218 34.429 19.2028 34.3557 19.3176 34.2932C19.1511 34.4105 19.132 34.4392 19.1014 34.5011C19.0376 34.628 19.0191 34.7639 19.0019 34.8838C18.9904 34.966 18.9732 35.0898 18.9496 35.1095C18.69 35.3155 18.2857 35.1083 17.8756 34.8959C17.6064 34.7562 17.3277 34.6121 17.0611 34.57C16.8467 34.5289 16.629 34.5067 16.4106 34.5036C15.556 34.5036 15.4131 34.989 15.3366 35.2498C15.3253 35.2794 15.3193 35.3107 15.3187 35.3423L15.2837 35.306C15.1861 35.2071 15.0528 35.0719 14.8513 35.0719C14.8003 35.0731 14.7498 35.0828 14.702 35.1006C14.3876 35.2358 14.3334 35.6465 14.2855 36.0094C14.2741 36.0962 14.26 36.2333 14.276 36.2097C14.2307 36.2645 14.1363 36.3079 14.0368 36.3545C13.9112 36.4125 13.7683 36.4782 13.6969 36.5579C13.6289 36.6036 13.5738 36.666 13.5368 36.739C13.4707 36.7219 13.4019 36.7187 13.3345 36.7294C13.2671 36.7402 13.2027 36.7647 13.1452 36.8016C12.9692 36.9272 12.8671 37.0911 12.7772 37.2365C12.7383 37.299 12.7032 37.3564 12.6643 37.4062C12.5466 37.387 12.426 37.4139 12.3276 37.4814C12.2319 37.5458 12.1771 37.6466 12.1643 37.7882C12.0961 37.873 12.0419 37.9157 12.0138 37.933C11.5565 37.9381 10.3588 38.0038 10.3588 38.558C10.3588 39.0344 10.8607 39.0988 11.1018 39.1294C11.2019 39.1428 11.3881 39.1664 11.4398 39.2187C11.4525 39.2461 11.4621 39.3354 11.4685 39.389C11.4889 39.5669 11.531 39.9375 11.8843 39.9955C11.9016 39.9986 11.9191 40.0001 11.9366 40C12.2434 40 12.5476 39.47 12.7702 38.9598C12.8014 38.9662 12.8346 38.9732 12.8684 38.9815C13.0368 39.0216 13.193 39.081 13.4749 38.9796C13.6656 38.8839 13.7154 38.69 13.7415 38.579C13.9424 38.5682 14.2179 38.6798 14.4756 38.7914C14.6478 38.8654 14.8104 38.9343 14.9603 38.9713C15.086 39.0006 15.1803 39.0019 15.2569 38.9834L15.2907 39.0178C15.7033 39.4273 16.1625 39.9088 16.6638 39.6971C17.1964 39.4483 17.5395 38.3399 17.6791 37.7946C17.7589 37.7805 17.8507 37.7735 17.9515 37.7735C18.5287 37.7735 19.2691 38.0069 19.5714 38.3048C19.6856 38.3966 19.8023 38.491 19.8501 38.5605C19.8441 38.5844 19.8371 38.608 19.8291 38.6313C19.8023 38.7232 19.7608 38.8616 19.8616 38.9961C19.8918 39.0362 19.9308 39.0687 19.9756 39.0911C20.0204 39.1136 20.0698 39.1254 20.1199 39.1256C20.2098 39.1219 20.2952 39.0851 20.3597 39.0223C20.3785 39.0035 20.395 38.9825 20.4088 38.9598C20.4796 38.8412 20.5007 38.7123 20.5173 38.609L20.5243 38.5669C20.6269 38.6141 20.7826 38.7034 20.9898 38.8341L21.0944 38.8992C21.1595 38.934 21.2313 38.9547 21.3049 38.9598C21.37 38.9853 21.4503 39.0178 21.5447 39.0178C21.7086 39.0178 21.8489 38.9177 21.9127 38.7123C21.9289 38.6024 21.9123 38.4901 21.8649 38.3896L21.9752 38.4036C22.3126 38.447 22.6953 38.4968 22.9976 38.4968C23.298 38.4968 23.5059 38.4343 23.6194 38.3169C23.6985 38.3737 23.7839 38.4202 23.8771 38.4521C23.9197 38.4645 23.964 38.4705 24.0084 38.47C24.0218 38.477 24.0359 38.4827 24.0492 38.4872C24.0796 38.4962 24.1108 38.5022 24.1424 38.5051C24.2256 38.5843 24.3329 38.6337 24.4472 38.6454C24.6468 38.7971 24.9549 38.7972 25.0786 38.7972C25.416 38.7972 25.8344 38.7366 26.1699 38.6881C26.3612 38.6607 26.5187 38.6358 26.564 38.6301C26.6386 38.646 26.8363 38.7895 26.9664 38.8839C27.2502 39.0893 27.5187 39.2838 27.7892 39.2838C28.057 39.2838 28.2075 39.0988 28.2981 38.9885C28.3178 38.9623 28.3395 38.9378 28.3632 38.9151C28.4863 38.8597 28.6125 38.8424 28.7573 38.822C28.9512 38.7952 29.1674 38.7659 29.383 38.6339C29.4971 38.7512 29.6878 38.8622 30.1209 38.7168C30.3855 38.6077 30.4174 38.3386 30.434 38.1938L30.4378 38.1638C30.5163 38.1447 30.6151 38.1326 30.7121 38.1217C31.0201 38.086 31.4423 38.0376 31.5756 37.5758C31.5903 37.4578 31.5935 37.3456 31.5967 37.2365C31.6005 37.0994 31.6037 36.9808 31.6139 36.9183C31.6267 36.9017 31.6719 36.8615 31.6987 36.8379C31.802 36.748 31.9577 36.6121 31.906 36.3972C31.8824 36.2958 31.7791 36.1906 31.6821 36.1517C31.3499 36.0196 30.9417 36.086 30.6202 36.1651C30.566 36.1784 30.5131 36.1912 30.4614 36.2027C30.4181 36.0941 30.3489 35.9978 30.2599 35.9221L30.198 35.8736L30.1757 35.8564C30.323 35.7996 30.4716 35.7001 30.5794 35.5247C30.6904 35.3391 30.7504 35.1599 30.7606 35.0024C30.784 35.0058 30.8077 35.0075 30.8314 35.0075C30.8601 35.0075 30.9411 34.9947 30.9691 34.9877C31.4168 34.8646 31.7408 34.7753 31.7593 34.4724C31.7643 34.4122 31.7528 34.3518 31.7262 34.2976C32.4507 33.9392 33.2013 32.3786 33.3066 31.7797C33.4258 31.1451 33.3206 30.5941 32.996 30.1406ZM25.9103 1.99305C26.2049 1.99305 26.4486 1.84381 26.5787 1.5836C26.6164 1.50805 26.6225 1.42065 26.5959 1.34054C26.5692 1.26044 26.5119 1.19418 26.4364 1.15629C26.3732 1.12522 26.3085 1.09712 26.2426 1.0721C26.1921 1.05405 26.1433 1.03187 26.0965 1.00577C26.0732 0.990169 26.0479 0.977731 26.0213 0.968781C25.9944 0.959684 25.9671 0.951599 25.9396 0.944545C25.9561 0.896285 25.9647 0.845675 25.9651 0.794668H25.9664C25.9664 0.378839 25.6207 0 25.2183 0H25.2164C24.4574 0.0542109 24.4153 0.542109 24.4204 0.690711C24.4415 1.27491 25.2623 1.99305 25.9103 1.99305ZM15.2715 4.99123C15.6179 4.99123 15.7735 4.69275 15.866 4.51417L15.9183 4.41659C16.005 4.4504 16.1606 4.46443 16.2639 4.41341C16.3272 4.383 16.3818 4.33716 16.4227 4.28011C16.4814 4.31072 16.5509 4.33368 16.6332 4.34516C17.292 4.34516 17.3979 3.44781 17.4432 3.06451C17.4464 3.03645 17.4496 3.01158 17.4476 3.00647C17.4859 2.95418 17.6052 2.85213 17.6862 2.78261C17.8431 2.64868 18.0204 2.49625 18.1281 2.32405C18.1531 2.2811 18.1683 2.23322 18.1729 2.18376C18.1774 2.1343 18.171 2.08445 18.1543 2.03769C18.1451 1.99551 18.1396 1.95262 18.1377 1.9095C18.1243 1.75707 18.0937 1.39928 17.734 1.32912C17.7047 1.3263 17.6754 1.32439 17.646 1.32338C17.3532 1.32338 17.1377 1.52683 16.9648 1.69074C16.9296 1.72461 16.8936 1.75778 16.8571 1.79024C16.8438 1.79924 16.8312 1.80926 16.8194 1.82021C16.7405 1.77291 16.6506 1.74717 16.5586 1.74559C16.3322 1.74559 16.1663 1.9095 16.0675 2.03068C16.0131 2.08427 15.9754 2.15251 15.9591 2.22711C15.8667 2.16267 15.7573 2.12695 15.6446 2.12443C15.2575 2.12443 15.0993 2.56258 15.0311 2.7571C15.0024 2.8719 14.9999 2.98862 15.0254 3.11107C14.9888 3.13879 14.9579 3.1732 14.9342 3.21247C14.9085 3.26015 14.8927 3.31251 14.8878 3.36644C14.8828 3.42036 14.8889 3.47472 14.9055 3.52626C14.9271 3.58366 14.9565 3.63404 14.9909 3.67869C14.9311 3.6911 14.8744 3.7156 14.8244 3.7507C14.7744 3.78579 14.7321 3.83074 14.7001 3.88278C14.5687 4.07921 14.5706 4.35664 14.7046 4.60665C14.8328 4.84773 15.0451 4.99123 15.2715 4.99123Z" stroke="white" stroke-width="2.22222" stroke-linejoin="round" mask="url(#path-2-inside-1_849_5072)"/>
</svg>
