<svg width="40" height="40" viewBox="0 0 40 40" fill="none" xmlns="http://www.w3.org/2000/svg">
<path d="M37.1167 8.28125C37.1319 8.2883 37.1616 8.30543 37.2075 8.34863C37.3143 8.44912 37.4328 8.61641 37.563 8.83691C37.7022 9.07267 37.7949 9.26044 37.9282 9.49512L37.939 9.5127L37.9497 9.5293C37.9891 9.58691 38.0409 9.65041 38.0728 9.69043C38.1099 9.73711 38.1377 9.77478 38.1606 9.80859C38.0706 10.037 37.8956 10.2377 37.6343 10.499C37.3656 10.7677 36.976 11.1261 36.7583 11.6123C36.5639 12.0464 36.6852 12.4798 36.7417 12.7129C36.813 13.0072 36.8225 13.1099 36.7866 13.1982C36.7011 13.4074 36.5523 13.5753 36.3306 13.79C36.153 13.9619 35.9033 14.1849 35.7026 14.4678L35.6196 14.5928C35.3899 14.9671 35.3989 15.3452 35.4097 15.5967C35.4219 15.8833 35.4295 15.9988 35.3843 16.1123C35.2904 16.3484 35.1274 16.5407 34.8931 16.8271C34.6755 17.0931 34.4035 17.4351 34.2661 17.8975C34.1483 18.2942 34.2014 18.66 34.3081 18.9746C34.4099 19.2746 34.5742 19.563 34.6987 19.793C34.9784 20.3096 35.0882 20.6015 34.9556 20.918C34.7976 21.295 34.4554 21.6367 33.9937 22.0234C33.6224 22.3343 33.1496 22.6916 32.7847 23.083L32.6353 23.252C32.5468 23.3593 32.397 23.5379 32.2671 23.7305C32.1627 23.8851 32.0281 24.1087 31.9761 24.3535L31.9614 24.4424C31.8749 25.0561 32.0589 25.6544 32.312 26.1904C32.5653 26.7267 32.9214 27.2661 33.2378 27.7588C33.565 28.2682 33.8517 28.7304 34.0269 29.1641C34.186 29.5582 34.2277 29.8722 34.1616 30.1377C34.1584 30.141 34.1562 30.1443 34.1538 30.1465C34.1421 30.1432 34.1198 30.1371 34.0894 30.1172C34.0505 30.0917 34.007 30.0531 33.9663 30.0039C33.6357 29.6047 33.3356 29.1758 33.0181 28.7256C32.7046 28.2812 32.3744 27.8169 32.0015 27.3809C31.4607 26.7497 30.8408 26.5718 30.2397 26.5312C29.9573 26.5122 29.6638 26.523 29.4067 26.5273C29.1386 26.5319 28.8902 26.5306 28.644 26.499H28.6431C28.4076 26.469 28.2287 26.3879 27.8911 26.2881C27.5882 26.1986 27.2052 26.1172 26.769 26.2305C26.4624 26.3102 26.2389 26.4931 26.0747 26.6836C25.9158 26.868 25.7909 27.0853 25.6899 27.2656C25.5805 27.4611 25.4957 27.6184 25.3979 27.7578C25.3104 27.8826 25.2336 27.9578 25.1626 28.0029C24.7888 28.1564 24.4195 28.2033 24.0356 28.2139C23.8335 28.2194 23.6406 28.2153 23.4302 28.2139C23.2267 28.2125 23.0098 28.2139 22.7954 28.2344C22.3567 28.2763 21.8981 28.4005 21.4849 28.7637C21.0823 29.1175 20.7729 29.6539 20.5298 30.418L20.5269 30.4287L20.5239 30.4404C20.4748 30.6238 20.4323 30.8441 20.3979 30.998C20.359 31.1723 20.3211 31.3076 20.272 31.4141C20.2251 31.5155 20.1775 31.5701 20.1304 31.6025C20.0868 31.6324 20.0064 31.6674 19.8481 31.6719C19.8436 31.67 19.8366 31.668 19.8276 31.6631C19.7924 31.6438 19.7438 31.6093 19.6851 31.5547C19.5663 31.4443 19.4546 31.3015 19.3687 31.1865L19.3677 31.1855L19.2729 31.0527C19.0596 30.7361 18.8965 30.3774 18.7075 29.9697C18.4997 29.5212 18.2617 29.0147 17.8979 28.5635C17.6596 28.2676 17.3793 28.094 17.0601 28.041C16.7657 27.9923 16.4935 28.0579 16.3003 28.1123C15.8955 28.2263 15.7434 28.2824 15.5942 28.2324L15.5298 28.2051L15.4126 28.1328C15.1494 27.9497 14.949 27.6517 14.6792 27.2266C14.3951 26.779 14.0357 26.1976 13.4194 25.8164C12.7592 25.4082 12.0806 25.5456 11.5669 25.6865C11.2799 25.7653 11.0768 25.8348 10.8335 25.8916C10.6646 25.931 10.5166 25.9527 10.3823 25.9531L10.2515 25.9463C9.89311 25.9054 9.53886 25.7245 9.12646 25.458C8.79579 25.2443 8.39342 24.9476 7.98486 24.7314L7.80908 24.6445C7.36958 24.4403 6.88371 24.3421 6.48193 24.2539C6.05468 24.1601 5.71081 24.0757 5.42822 23.9209C5.30985 23.8559 5.19763 23.7499 5.06006 23.5879C4.94385 23.451 4.76447 23.2138 4.59131 23.0391C4.32155 22.767 3.9912 22.5195 3.76318 22.3262C3.51469 22.1154 3.32207 21.921 3.18701 21.6797C2.97218 21.2962 2.88327 20.8447 2.81689 20.3096C2.75426 19.8045 2.71056 19.1851 2.55029 18.623C2.41246 18.1396 2.16907 17.6083 2.02295 17.2129C1.86231 16.7781 1.76665 16.3945 1.80127 16.0049C1.85988 15.3456 2.0693 14.7111 2.32959 14.042C2.58222 13.3926 2.89781 12.6792 3.104 11.9521C3.24805 11.4446 3.27112 10.8994 3.31201 10.4707C3.33171 10.2643 3.35686 10.0759 3.39307 9.90137C3.44334 9.94627 3.4962 9.99194 3.55029 10.04C3.68225 10.1574 3.82906 10.2854 3.96436 10.3838C4.03194 10.4329 4.10999 10.4848 4.19189 10.5254C4.26317 10.5607 4.39254 10.6159 4.54834 10.6113V10.6104C4.75035 10.6044 4.8792 10.4909 4.93018 10.4375C4.98682 10.3781 5.02357 10.3161 5.04443 10.2764C5.08778 10.1937 5.11786 10.1026 5.13818 10.0352C5.15863 9.96726 5.17699 9.89529 5.19092 9.83105L5.21924 9.67383C5.23164 9.56609 5.24343 9.46435 5.26221 9.36621C5.28117 9.26716 5.30311 9.19348 5.32666 9.14355C5.33293 9.13028 5.339 9.12105 5.34326 9.11426C5.34773 9.11458 5.35339 9.11434 5.35986 9.11523C5.77316 9.17286 6.18659 9.32707 6.64697 9.51758C7.08909 9.70053 7.59135 9.92531 8.104 10.0605C9.92358 10.5411 11.9076 10.8092 13.7358 11.0391H13.7368C14.719 11.162 15.6044 11.1016 16.4478 11.0176C17.3022 10.9325 18.0904 10.8269 18.9546 10.834C19.4053 10.8375 19.8352 10.9485 20.3042 11.1016C20.7528 11.248 21.2786 11.4497 21.8149 11.5693C22.1701 11.6486 22.5162 11.634 22.7905 11.623C23.0855 11.6112 23.302 11.603 23.5073 11.6445C23.5133 11.6457 23.5529 11.6324 23.6997 11.9814C23.8015 12.2236 23.9894 12.755 24.5034 12.9912C25.0579 13.2468 25.6494 13.2495 26.1216 13.2432V13.2441C26.15 13.2439 26.1805 13.2415 26.1987 13.2402C26.2234 13.2386 26.2396 13.2369 26.2642 13.2354C26.2711 13.2349 26.2779 13.2348 26.2847 13.2344C26.285 13.2364 26.2863 13.2382 26.2866 13.2402C26.3024 13.344 26.309 13.475 26.311 13.6357C26.3146 13.9239 26.2974 14.369 26.3179 14.7314C26.3387 15.0998 26.401 15.5473 26.6411 15.8975C26.7691 16.084 26.9456 16.2404 27.1782 16.3379C27.4064 16.4335 27.6598 16.4615 27.9282 16.4375L27.9292 16.4365C28.3839 16.3954 28.6797 16.1285 28.8677 15.9434C29.0911 15.7234 29.1657 15.6337 29.2769 15.585L29.2778 15.584C29.3644 15.5459 29.4808 15.5484 29.7837 15.5664C29.9979 15.5792 30.3315 15.6004 30.6616 15.4707L30.8032 15.4053C31.0842 15.253 31.3129 15.0441 31.4966 14.8691C31.6456 14.7272 31.7635 14.6094 31.8823 14.5107L32.0024 14.418C32.2407 14.2486 32.4791 14.1356 32.7964 13.9531C33.0901 13.7842 33.4186 13.5708 33.688 13.2441C33.9199 12.9629 34.0671 12.6354 34.1831 12.3906C34.2779 12.1907 34.3566 12.0332 34.4487 11.9043L34.5464 11.7842C34.6847 11.6355 34.8566 11.5111 35.0728 11.3672C35.2753 11.2323 35.5353 11.0699 35.7651 10.8711V10.8701C36.2248 10.4721 36.3911 9.98017 36.5015 9.5752C36.6203 9.13933 36.6713 8.8511 36.8413 8.58496C36.9906 8.35516 37.088 8.2957 37.1167 8.28125Z" stroke="white"/>
</svg>
